<?xml version="1.0" encoding="UTF-8"?>
<svg id="Layer_1" xmlns="http://www.w3.org/2000/svg" version="1.1" viewBox="0 0 304.88 304.88">
  <!-- Generator: Adobe Illustrator 30.3.0, SVG Export Plug-In . SVG Version: 2.1.3 Build 182)  -->
  <defs>
    <style>
      .st0 {
        stroke-width: .15px;
      }

      .st0, .st1, .st2 {
        stroke-miterlimit: 10;
      }

      .st0, .st3, .st2 {
        fill: #fff;
      }

      .st0, .st2 {
        stroke: #ff7f25;
      }

      .st1 {
        fill: #ff7f25;
        stroke: #fff;
      }

      .st1, .st2 {
        stroke-width: .5px;
      }
    </style>
  </defs>
  <circle class="st1" cx="152.44" cy="152.44" r="152.19"/>
  <path class="st0" d="M174.99,212.98c0,1.07-.17,2.12-.52,3.18-.35,1.05-.8,2.04-1.35,2.96-.55.93-1.16,1.76-1.83,2.5-.67.74-1.3,1.32-1.9,1.74h-1.14c-.32,0-.62.1-.9.31s-.59.44-.9.69c-.57.14-1.15.25-1.76.31-.6.07-1.22.1-1.85.1-2.24,0-4.28-.45-6.1-1.36-1.82-.91-3.49-2.03-5.01-3.35-.57.28-1.19.58-1.85.89s-1.28.57-1.85.8l-.62.25h.05c-.32.14-.61.3-.88.48s-.51.36-.73.52c-.7.56-1.41.95-2.14,1.18-.73.22-1.46.38-2.18.46-.73.09-1.45.14-2.16.17s-1.4.13-2.06.29l.05-.04-1.19-.55-.52.25c-.13.06-.17.12-.14.19.03.07.08.14.14.21.06.07.11.13.14.19.03.06,0,.08-.1.08-.47,0-.92-.08-1.33-.25-.41-.17-.86-.25-1.33-.25-.44,0-.89.03-1.35.08s-.91.08-1.35.08c-.54,0-1.04-.08-1.49-.25-.46-.17-.91-.35-1.35-.55-.44-.19-.88-.38-1.31-.55-.43-.17-.86-.25-1.3-.25-.35,0-.77-.15-1.26-.44-.49-.3-.97-.65-1.45-1.07-.48-.42-.89-.86-1.26-1.32-.36-.46-.58-.86-.64-1.2-.35-.17-.69-.34-1.02-.53-.33-.18-.66-.38-.97-.61l-.24-.72v.04c-.16-.42-.3-.86-.43-1.32s-.21-.98-.24-1.53c-.63-.73-1.08-1.53-1.33-2.4-.25-.87-.38-1.75-.38-2.65,0-1.09.22-2.07.67-2.95-.13-.22-.26-.44-.4-.63-.14-.2-.29-.41-.45-.63.16-1.43.52-2.83,1.09-4.19.57-1.36,1.33-2.59,2.28-3.7.95-1.11,2.09-2.07,3.42-2.9,1.33-.83,2.85-1.44,4.55-1.83.79-.2,1.49-.4,2.09-.61.6-.21,1.16-.44,1.68-.69.52-.25,1.01-.52,1.47-.8.46-.28.92-.6,1.4-.97-.03-.56-.16-1.02-.38-1.37-.22-.35-.47-.73-.76-1.15-.19-.25-.42-.63-.69-1.14-.27-.51-.55-1.03-.83-1.56-.29-.53-.58-1.04-.88-1.52-.3-.48-.56-.82-.78-1.05l-.43-.38c-.35-.28-.65-.56-.9-.84-.1-.14-.21-.44-.36-.9s-.27-.97-.38-1.52c-.11-.55-.21-1.07-.31-1.56-.1-.49-.14-.83-.14-1.03,0-1.43.17-2.51.52-3.24.35-.73.77-1.33,1.26-1.81.49-.48,1.01-.95,1.57-1.41.55-.46,1.05-1.15,1.49-2.08.76-.5,1.62-.91,2.59-1.22s1.98-.55,3.04-.73c1.06-.18,2.14-.33,3.23-.44,1.09-.11,2.14-.21,3.16-.3l2.89-.25c.57.14,1.17.41,1.8.8.63.4,1.24.88,1.83,1.45.59.58,1.15,1.21,1.68,1.89.54.69,1.01,1.37,1.42,2.04.41.67.73,1.32.97,1.94.24.62.36,1.15.36,1.6,0,.56-.06,1.21-.17,1.96s-.26,1.49-.45,2.25c-.19.76-.43,1.49-.71,2.19-.29.7-.6,1.28-.95,1.73-.13.14-.23.3-.31.48-.08.19-.15.35-.21.48h.05c-.13.34-.27.66-.43.97-.16.31-.41.55-.76.72-.63.28-1.03.54-1.19.78-.16.24-.27.48-.33.72-.06.24-.19.48-.38.73s-.63.55-1.33.88c-.44.25-.82.46-1.14.63-.32.17-.63.33-.95.48s-.66.3-1.02.44c-.36.14-.8.29-1.3.46v.04c-.06.31-.14.57-.21.8-.08.23-.25.45-.5.67.22.37.5.85.85,1.45.35.61.6,1.1.76,1.49l.33.8v-.04c.09.31.25.57.47.78.22.21.46.43.71.65l.47.46c.41.53.7,1.04.85,1.52.16.48.28.94.36,1.39.08.45.16.87.24,1.26s.25.76.5,1.09v-.04c.16.22.4.55.71.99s.65.89,1,1.36c.35.48.7.93,1.07,1.37.36.44.69.75.97.95.28-.34.46-.65.52-.95.06-.29.09-.59.09-.88s0-.62.02-.99c.02-.36.12-.78.31-1.26h-.05c.03-.08.09-.13.17-.15.08-.02.17-.02.26,0,.1.01.18.02.26.02s.13-.03.17-.08v-.55c.06-.06.06-.16-.02-.31-.08-.15-.12-.22-.12-.19v.04c.09-.17.21-.52.36-1.07s.29-1.15.43-1.81.27-1.28.38-1.85c.11-.57.18-.96.21-1.16.16-.17.27-.37.33-.61.06-.24.1-.5.12-.78.02-.28.05-.55.09-.82.05-.27.12-.48.21-.65.44-.73.88-1.33,1.33-1.79.44-.46,1.04-.92,1.8-1.37.88-.39,1.53-.74,1.92-1.03.4-.29.79-.54,1.19-.73.4-.2.92-.34,1.57-.44s1.67-.15,3.06-.15c1.04,0,1.96.04,2.75.13.79.08,1.49.29,2.11.63.62.34,1.17.84,1.66,1.52.49.67.96,1.6,1.4,2.78l-.05-.04c.22.48.33.95.33,1.43,0,.42-.02.77-.07,1.03-.05.27-.12.48-.21.65-.09.17-.22.31-.38.42-.16.11-.33.24-.52.38-.5.34-.85.67-1.02.99-.17.32-.33.6-.48.82-.14.23-.35.41-.62.55s-.75.21-1.45.21c-.76,0-1.54-.13-2.35-.4-.81-.27-1.56-.57-2.25-.9-.7-.34-1.29-.64-1.78-.9s-.78-.4-.88-.4c-.67,0-1.33.35-1.99,1.03-.66.69-1.29,1.5-1.87,2.44-.59.94-1.09,1.89-1.52,2.84-.43.95-.74,1.68-.93,2.19.13.31.19.67.19,1.09,0,.53-.02.98-.05,1.35-.03.37-.09.72-.17,1.07-.08.35-.17.73-.28,1.14-.11.4-.23.9-.36,1.49.03.14.1.35.21.63.11.28.24.57.38.86.14.29.29.57.43.84.14.27.24.46.31.57v-.04c.19.31.37.62.54.92.17.31.29.66.36,1.05.79.48,1.6.86,2.44,1.16.84.29,1.76.44,2.78.44,1.55,0,2.78-.49,3.7-1.47.16-.51.28-1.13.38-1.87.09-.74.28-1.47.54-2.19.27-.71.7-1.32,1.28-1.83.59-.51,1.45-.76,2.59-.76,1.49,0,2.48.31,2.99.93s.76,1.54.76,2.78ZM142.73,216.09c.6-.19,1.23-.41,1.87-.65s1.23-.5,1.76-.78.95-.58,1.28-.9c.33-.32.5-.68.5-1.07-.1-.59-.46-1.14-1.09-1.64l-.47-.38c-.35-.34-.63-.69-.86-1.07-.22-.38-.44-.77-.66-1.18-.22-.4-.46-.83-.71-1.28-.25-.45-.57-.91-.95-1.39-.16-.81-.44-1.58-.83-2.29-.4-.72-.82-1.41-1.28-2.08s-.9-1.32-1.33-1.95c-.43-.63-.77-1.28-1.02-1.96l-.33-.88c-.1-.25-.19-.5-.29-.76-.09-.25-.21-.48-.36-.67-.14-.19-.35-.36-.62-.48s-.61-.19-1.02-.19c-.76,0-1.49.13-2.18.38-.7.25-1.38.54-2.04.86-.67.32-1.34.63-2.02.93-.68.29-1.37.5-2.06.61-1.04.36-1.77.78-2.18,1.26-.41.48-.7.98-.85,1.51-.16.53-.28,1.07-.36,1.62s-.31,1.04-.69,1.49v-.04c-.19.31-.39.57-.59.8-.21.22-.42.48-.64.76,0,.08-.12.16-.36.23-.24.07-.51.15-.81.25-.3.1-.58.23-.83.38s-.4.36-.43.61c.1.53.28.9.55,1.09.27.19.54.31.81.36.27.04.51.05.74.02.22-.03.33.02.33.13,0,.48.09.95.26,1.41.17.46.36.92.54,1.36.19.45.37.88.55,1.28.17.41.26.79.26,1.16v.04c.13.11.26.21.4.3.14.08.28.19.4.34h-.05c.82.81,1.66,1.56,2.51,2.23s1.82,1.19,2.89,1.56c.31-.03.68-.04,1.09-.04h1.14c.35,0,.71,0,1.09.02.38.01.76.02,1.14.02h4.56c.38-.23.85-.44,1.42-.65.57-.21,1.17-.43,1.8-.65ZM147.29,174.15v.04c-.32-.48-.63-.94-.95-1.39s-.68-.85-1.09-1.2-.89-.63-1.42-.84-1.15-.31-1.85-.31-1.45.13-2.25.38c-.81.25-1.56.6-2.25,1.03-.7.43-1.28.93-1.76,1.49-.47.56-.71,1.15-.71,1.77v.25c0,.76.17,1.5.5,2.23s.5,1.47.5,2.23v.13c.38.39.69.98.92,1.74.24.77.49,1.54.76,2.32s.59,1.45.95,2.02c.36.57.88.86,1.54.86.35,0,.66-.1.92-.3.27-.19.53-.4.78-.63l.14-.13c.22-.22.45-.5.69-.84s.47-.67.71-1.01.49-.64.76-.9c.27-.27.54-.46.83-.57.22-.59.48-1.18.76-1.77.29-.59.57-1.2.85-1.83.29-.63.54-1.26.76-1.89.22-.63.38-1.28.47-1.95l-.57-.93ZM151.08,218.62c0-.45-.1-.84-.31-1.18s-.58-.53-1.11-.59c0,.11,0,.22-.02.32-.02.1-.02.2-.02.31,0,.45-.02.8-.05,1.05-.03.25.22.41.76.46,0-.11.13-.17.38-.19s.38-.08.38-.19Z"/>
  <g>
    <path class="st3" d="M164.06,145c-.24.2-.42.49-.54.86-.12.38-.24.71-.36,1.02s-.3.54-.54.71c-.24.17-.59.19-1.07.05.48.75.67,1.14.6,1.17-.08.04-.12.12-.12.25-1.19.14-2.36.17-3.51.1-1.15-.07-2.28-.07-3.39,0-.32,0-.65.02-1.01.05-.36.04-.65.02-.89-.05-.48-.07-.91-.1-1.31-.1s-.79-.03-1.19-.1c-1.35-.47-2.36-.64-3.03-.51-.67.14-1.33.17-1.96.1-1.67,0-3.43.07-5.29.2-1.86.14-3.95.27-6.25.41-1.43-.54-2.91-.66-4.46-.36-1.55.31-3.11.43-4.7.36-.87-.13-1.35-.07-1.43.2-1.51-.07-2.72-.17-3.63-.31-.91-.13-1.8-.24-2.68-.31-.79,0-1.57.04-2.32.1-.75.07-1.49.07-2.2,0-.79,0-1.21-.05-1.25-.15s-.1-.19-.18-.25c-.32-.07-.73,0-1.25.2-.52.2-.85.1-1.01-.3-.63.34-1.19.37-1.67.1-.48-.27-.99-.41-1.55-.41-.4,0-.89.05-1.49.15-.59.1-1.21.12-1.84.05l-1.67-.31c-.32-.14-.65-.15-1.01-.05-.36.1-.65.15-.89.15-.64.07-1.23.02-1.78-.15-.56-.17-1.11-.22-1.67-.15-.48,0-.95.1-1.43.31-.48.2-.99.31-1.55.31-1.03.07-2.04-.05-3.03-.36-.99-.31-2.04-.22-3.15.25-.4.07-.75.07-1.07,0-.32-.07-.67-.07-1.07,0-1.59-.2-3-.22-4.22-.05-1.23.17-2.46.34-3.69.51-1.23.17-2.46.25-3.69.25s-2.44-.17-3.63-.51c.24-1.02.77-1.49,1.61-1.43.83.07,1.65-.03,2.44-.31,1.74-.07,3.27-.2,4.58-.41s2.62-.44,3.93-.71,2.52-.61,3.63-1.02c1.11-.41,2.06-.95,2.85-1.63-.08-.34-.04-.59.12-.76s.24-.42.24-.76c-.4.07-.77.15-1.13.25-.36.1-.73.09-1.13-.05,0-.75.22-1.34.65-1.78.44-.44.93-.73,1.49-.87,0-.34.18-.63.54-.87.36-.24.61-.59.77-1.07s.16-.98,0-1.53c-.16-.54-.44-.98-.83-1.32.79-.95,1.05-2.02.77-3.21-.28-1.19-.5-2.36-.65-3.51-.4.14-.71.19-.95.15s-.56-.08-.95-.15c-.08-.41.04-.78.36-1.12.32-.34.67-.68,1.07-1.02-.32-.07-.63-.37-.95-.92.24-.41.55-.73.95-.97.4-.24.52-.69.36-1.37-.32-.34-.7-.51-1.13-.51s-.85-.14-1.25-.41c.08-.68.46-1.12,1.13-1.32.67-.2,1.09-.58,1.25-1.12.16-.34.16-.73,0-1.17-.16-.44-.16-.83,0-1.17-.24,0-.44.08-.6.25s-.36.32-.59.46c-.56.14-.89.07-1.01-.2s-.38-.41-.77-.41c.16-.54.59-.98,1.31-1.32.71-.34,1.19-.85,1.43-1.53-.32-.41-.62-.71-.89-.92-.28-.2-.42-.58-.42-1.12.87-.34,1.33-.92,1.37-1.73.04-.82-.02-1.59-.18-2.34-.08-.34-.04-.63.12-.87.16-.24.24-.56.24-.97.08-.54.02-1.13-.18-1.78-.2-.64-.3-1.27-.3-1.88,0-.47.02-.92.06-1.32.04-.41.06-.88.06-1.42-.32-.68-.42-1.17-.3-1.48s.3-.56.54-.76c-.16-1.56-.14-3.16.06-4.79.2-1.63.38-3.02.54-4.17,0-1.29.06-2.38.18-3.26.12-.88-.1-1.66-.65-2.34.24-.41.36-.87.36-1.38s-.2-.93-.59-1.27c-.64.07-1.23-.03-1.78-.3.08-.2.18-.37.3-.51s.26-.31.42-.51c-.08-.75-.46-1.22-1.13-1.43-.67-.2-1.29-.47-1.84-.81.16-.54.02-.85-.42-.92-.44-.07-.58-.27-.42-.61-1.43-.34-2.8-.47-4.11-.41-1.31.07-2.32-.1-3.03-.51-.32.2-.87.34-1.67.41-.79.07-1.27-.17-1.43-.71-.71.14-1.15-.03-1.31-.51.16-.34.4-.61.71-.82.31-.2.67-.37,1.07-.51,1.51.34,2.66.42,3.45.25.79-.17,1.63-.25,2.5-.25.4,0,.81.07,1.25.2.44.14.85.2,1.25.2.4.07.73.05,1.01-.05.28-.1.61-.19,1.01-.25.87-.07,1.76-.05,2.68.05.91.1,1.8.19,2.68.25,1.11-.07,2.24-.03,3.39.1,1.15.14,2.28.25,3.39.36,1.11.1,2.22.17,3.33.2,1.11.04,2.22-.05,3.33-.25.4.14.85.19,1.37.15.52-.03.85.12,1.01.46,1.11.07,2.32.05,3.63-.05s2.52-.15,3.63-.15c.4,0,.83.05,1.31.15s.95.15,1.43.15c.55.07,1.13.03,1.73-.1.59-.14,1.21-.24,1.84-.31,1.11-.14,2.3-.34,3.57-.61,1.27-.27,2.58-.34,3.93-.2.48.41.57.82.3,1.22-.28.41-.65.68-1.13.81-.95-.13-1.89-.15-2.8-.05-.91.1-1.84.25-2.8.46-.95.2-1.9.38-2.86.51-.95.14-1.86.2-2.74.2-.79.07-1.69.37-2.68.92-.99.54-1.57,1.19-1.72,1.93.48.07.79.1.95.1h.83c-.48.54-.79.8-.95.76s-.36-.02-.59.05c-.16.34-.38.58-.65.71s-.5.37-.65.71c.24.14.52.14.83,0,.32-.13.55-.27.71-.41.24,0,.61-.07,1.13-.2.52-.13.73-.34.65-.61.16-.34.5-.51,1.01-.51s.81-.24.89-.71c.79-.54,1.35-.75,1.67-.61.32.14.48.34.48.61-.16.41-.5.68-1.01.82-.52.14-.85.37-1.01.71-.16-.14-.32-.17-.48-.1s-.44.1-.83.1c-1.27.81-2.36,1.56-3.27,2.24-.91.68-1.09,1.63-.54,2.85.63-.27,1.39-.36,2.26-.25.87.1,1.23.49,1.07,1.17-.32.34-.63.49-.95.46-.32-.03-.59-.08-.83-.15.63.48.87.75.71.82-.16.07-.24.24-.24.51-.4.14-.71.19-.95.15-.24-.03-.4.02-.48.15.16.14.18.29.06.46s-.26.37-.42.61c-.16.24-.32.51-.48.82s-.16.63,0,.97c.32.27.55.51.71.71.16.2.28.54.36,1.02-.64.34-1.09.9-1.37,1.68-.28.78-.02,1.41.77,1.88.08.68-.28,1.12-1.07,1.32.08.34.08.59,0,.76-.08.17-.12.36-.12.56.32.2.69.31,1.13.31s.85.07,1.25.2c.16.75.16,1.26,0,1.53-.16.27-.67.44-1.55.51.48.48.5.76.06.87-.44.1-.73.36-.89.76.16.27.36.44.59.51.24.07.44.17.6.31.24.34.28.68.12,1.02-.16.34-.34.68-.54,1.02-.2.34-.36.7-.48,1.07-.12.37.02.76.42,1.17.4.2.61.46.65.76.04.3-.06.59-.3.86-.24.07-.38.48-.42,1.22-.04.75-.08,1.55-.12,2.39-.04.85-.08,1.72-.12,2.6-.04.88-.02,1.7.06,2.44.4.82.44,1.34.12,1.58-.32.24-.52.63-.59,1.17.71.61.93,1.07.65,1.38-.28.31-.54.61-.77.92-.24.31-.42.65-.54,1.02-.12.37-.1.87.06,1.48.31.27.46.56.42.86s-.3.56-.77.76c.95.2,1.41.29,1.37.25-.04-.03-.06-.12-.06-.25-.24.61-.3.92-.18.92s.18.1.18.31c-.56.34-.87.61-.95.81-.08.2-.18.39-.3.56-.12.17-.18.36-.18.56s.12.41.36.61c.55-.27.99-.31,1.31-.1.32.2.67.37,1.07.51-.32.48-.87.88-1.67,1.22-.56,1.15-.85,2.12-.89,2.9-.04.78.26,1.38.89,1.78.16.95.22,1.61.18,1.99-.04.37.02.87.18,1.48.4,0,.49.1.3.31-.2.2-.22.48-.06.82.48-.2.67-.44.6-.71-.08-.27-.04-.54.12-.82.24.95.36,1.6.36,1.94s-.04.68-.12,1.02c0,.2.16.32.48.36.32.04.44.22.36.56.48.54.91.71,1.31.51,0,.75.28,1.05.83.92.24.41.61.65,1.13.71.51.07,1.01.17,1.49.31.87.27,1.67.54,2.38.82.71.27,1.63.37,2.74.31,1.11-.14,1.88-.17,2.32-.1.44.07.85.1,1.25.1,1.9.14,3.71.14,5.41,0,1.7-.14,3.59-.24,5.65-.31.4-.41.91-.71,1.55-.92.63-.2,1.29-.39,1.96-.56.67-.17,1.33-.36,1.96-.56s1.15-.51,1.55-.92c.87-.82,1.78-1.51,2.74-2.09.95-.58,1.78-1.27,2.5-2.09-.16-.54.06-1.05.65-1.53.6-.47,1.01-.95,1.25-1.42.32.07.61,0,.89-.2s.54-.37.77-.51c.24-.54.48-1.07.71-1.58s.67-.86,1.31-1.07c.63-.75,1.11-1.65,1.43-2.7.32-1.05.91-1.85,1.78-2.39.48-.95.83-1.95,1.07-3,.24-1.05.67-1.88,1.31-2.49-.16-.34-.18-.71-.06-1.12s.38-.68.77-.82c.16-1.29.22-2.6.18-3.92-.04-1.32.18-2.56.65-3.72.79-.07,1.29.17,1.49.71.2.54.3,1.17.3,1.89s-.08,1.41-.24,2.09c-.16.68-.32,1.12-.48,1.32.08,1.49.04,2.94-.12,4.33-.16,1.39.2,2.49,1.07,3.31-.08,1.02-.14,2.07-.18,3.16-.04,1.09.26,1.9.89,2.44-.08.48-.4.82-.95,1.02.16.34.24.71.24,1.12.24.14.48.22.71.25.24.04.4.15.48.36-.16.68-.3,1.21-.42,1.58-.12.38-.38.66-.77.87.08.34.18.71.3,1.12.12.41.42.68.89.82.08.34.08.73,0,1.17-.08.44-.14.9-.18,1.38-.04.48-.02.93.06,1.37.08.44.32.83.71,1.17ZM87.91,73.61c-.24,0-.67-.05-1.31-.15s-1.03-.02-1.19.25c1.35.54,2.18.51,2.5-.1ZM89.81,74.94c-.71-.27-1.17-.39-1.37-.36-.2.04-.3.15-.3.36.16-.13.44-.13.83,0,.4.14.67.14.83,0ZM94.46,74.22c-.48-.07-.93-.03-1.37.1-.44.14-.89.29-1.37.46-.48.17-.93.34-1.37.51-.44.17-.85.19-1.25.05-.08.41-.18.68-.3.82s-.1.37.06.71c.95,0,1.7.24,2.26.71.16-1.02.65-1.66,1.49-1.93.83-.27,1.45-.75,1.84-1.43ZM105.52,138.28c-.16-.34-.3-.59-.42-.76-.12-.17-.06-.32.18-.46-.08-.68-.1-1.12-.06-1.32.04-.2.02-.37-.06-.51-.4,0-.65-.07-.77-.2-.12-.13-.26-.27-.42-.41-.08.68-.18,1.02-.3,1.02s-.22.07-.3.2c-.79.34-1.21.48-1.25.41-.04-.07-.1-.03-.18.1-.24.61-.52.95-.83,1.02-.32.07-.48.27-.48.61-.87-.34-1.35-.37-1.43-.1.79.48,1.25.66,1.37.56s.38-.12.77-.05c0-.41.24-.75.71-1.02.24.07.52.12.83.15.32.04.48.15.48.36-.95.2-1.55.37-1.78.51-.08.41-.28.66-.59.76-.32.1-.67.22-1.07.36-1.51.61-2.62,1.14-3.33,1.58-.71.44-1.63.8-2.74,1.07-.48.41-.75.58-.83.51-.08-.07-.24-.1-.48-.1-1.35,1.22-2.62,2.38-3.81,3.46,1.03.27,2.14.29,3.33.05,1.19-.24,2.1-.59,2.74-1.07.24-.14.54-.2.89-.2s.61-.14.77-.41c.4-.14.63-.36.71-.66.08-.31.24-.32.48-.05.24-.34.55-.63.95-.86s.83-.36,1.31-.36c.32-.75.85-1.22,1.61-1.43.75-.2,1.53-.47,2.32-.82.32,0,.5-.08.54-.25.04-.17.14-.34.3-.51.16-.17.34-.36.54-.56.2-.2.3-.41.3-.61ZM106.47,91.94c-.24.27-.46.41-.65.41s-.46.07-.77.2c-.87-.14-1.41-.15-1.61-.05-.2.1-.26.22-.18.36-.32.27-.79.51-1.43.71-.64.2-1.19.27-1.67.2-.4.61-1.07,1.04-2.02,1.27-.95.24-1.78.53-2.5.87-.08.2-.38.48-.89.82-.52.34-1.05.48-1.61.41-.48.54-1.11,1-1.9,1.38-.79.37-.99.97-.59,1.78-.32.14-.4.36-.24.66.16.31.16.6,0,.87.48-.2.87-.39,1.19-.56.32-.17.63-.31.95-.41.32-.1.61-.24.89-.41.28-.17.49-.42.65-.76,1.11-.61,2.26-1.22,3.45-1.83,1.19-.61,2.34-1.22,3.45-1.83.79-.27,1.21-.54,1.25-.82.04-.27.34-.34.89-.2-.16-.34-.06-.49.3-.46.36.04.65.02.89-.05.08-.27.26-.51.53-.71s.55-.39.83-.56c.28-.17.49-.36.65-.56.16-.2.2-.44.12-.71ZM107.07,86.24c-.48-.07-.85-.02-1.13.15-.28.17-.58.34-.89.51-.32.17-.64.29-.95.36-.32.07-.75,0-1.31-.2.48-.68.87-.98,1.19-.92.32.07.71.07,1.19,0,.63-.68,1.15-1.17,1.55-1.48.4-.31.4-.73,0-1.27-.32.07-.64.15-.95.25s-.63.09-.95-.05c-.24.34-.5.65-.77.92-.28.27-.73.41-1.37.41-.56,1.02-1.27,1.59-2.14,1.73-.08.34-.28.6-.59.76-.32.17-.65.31-1.01.41s-.69.22-1.01.36c-.32.14-.52.34-.59.61-.24.14-.52.27-.83.41-.32.14-.56.31-.71.51-.87,0-1.21.07-1.01.2.2.14.14.27-.18.41-.08.41.14.46.65.15.51-.31.97-.63,1.37-.97.24.14.5.14.77,0,.28-.14.57-.24.89-.31-.79.2-1.47.75-2.02,1.63-.48.07-.85.22-1.13.46-.28.24-.58.46-.89.66-.32.2-.64.36-.95.46-.32.1-.64.05-.95-.15.08.41,0,.61-.24.61s-.56.17-.95.51c-.56.48-.79,1.1-.71,1.88.08.78.55,1.1,1.43.97.16-.14.34-.29.54-.46.2-.17.5-.25.89-.25.87-.34,1.37-.61,1.49-.82s.38-.27.77-.2c.4-.27.79-.54,1.19-.81s.79-.51,1.19-.71c-.16.27-.18.39-.06.36s.28-.12.48-.25c.2-.14.42-.29.65-.46.24-.17.48-.22.71-.15,0-.34.2-.66.59-.97s.67-.32.83-.05c.32-.2.55-.42.71-.66s.48-.32.95-.25c.95.41,1.61.56,1.96.46.36-.1.69-.05,1.01.15.24-.34.5-.56.77-.66s.42-.32.42-.66c-.4-.14-.73-.12-1.01.05-.28.17-.65.19-1.13.05.08.34-.02.53-.3.56s-.58.12-.89.25c-.32-.61-.32-.97,0-1.07.32-.1.63-.19.95-.25.31-.07.57-.17.77-.31.2-.13.26-.34.18-.61.4-.27.79-.52,1.19-.76.4-.24.52-.73.36-1.48ZM107.07,78.5c-.4,0-.67.05-.83.15-.16.1-.4.12-.71.05-.64.68-1.19,1.15-1.67,1.42-.48.27-.99.41-1.55.41.16.68.32,1.22.48,1.63-.48,0-.82.05-1.01.15-.2.1-.58.08-1.13-.05-.48.61-.83.88-1.07.81-.24-.07-.36-.03-.36.1-.87.82-1.61,1.29-2.2,1.43s-1.01.44-1.25.92c-.64-.07-.99-.02-1.07.15-.08.17-.16.32-.24.46-.32-.13-.56-.13-.71,0-.16.14-.4.2-.71.2-.16.54-.54.88-1.13,1.02s-.93.44-1.01.92c.24.14.28.34.12.61-.16.27-.32.48-.48.61.87.75,1.37,1.04,1.49.87.12-.17.26-.36.42-.56.16-.2.61-.47,1.37-.82.75-.34,1.17-.54,1.25-.61.55-.47.97-.73,1.25-.76.28-.03.49-.02.65.05.48-.27.81-.47,1.01-.61.2-.14.3-.27.3-.41,1.03-.41,1.55-.27,1.55.41.79-1.56,1.88-2.65,3.27-3.26s2.64-1.39,3.75-2.34c-.4-.82-.69-1.1-.89-.87-.2.24-.46.22-.77-.05.24-.13.42-.34.54-.61.12-.27.49-.34,1.13-.2-.16-.34-.12-.54.12-.61s.28-.27.12-.61ZM105.64,97.04c-.63-.13-1.19-.07-1.67.2-.48.27-1.15.41-2.02.41-1.11.48-1.9.92-2.38,1.32s-.95.85-1.43,1.32c-1.11.41-2.12.85-3.03,1.32-.91.48-1.92.92-3.03,1.32-.16-.13-.4-.27-.71-.41-.32-.14-.59-.07-.83.2.4.27.49.66.3,1.17s-.06.87.42,1.07c.63-.34,1.23-.73,1.78-1.17.55-.44,1.31-.69,2.26-.76.95-.75,1.78-1.34,2.5-1.78.71-.44,1.43-.93,2.14-1.48.63,0,1.35-.17,2.14-.51-.16-.54.26-.97,1.25-1.27.99-.31,1.76-.63,2.32-.97ZM102.19,74.84c-.71-.2-1.47-.22-2.26-.05-.79.17-1.59.41-2.38.71-.79.31-1.57.61-2.32.92-.75.31-1.45.53-2.08.66-.71.2-1.21.51-1.49.92-.28.41-.62.71-1.01.92.08.27.18.53.3.76.12.24.22.49.3.76.48.07.81.02,1.01-.15.2-.17.4-.34.6-.51.2-.17.42-.32.65-.46.24-.14.6-.17,1.07-.1.71-.75,1.63-1.29,2.74-1.63,1.11-.34,2.06-.85,2.85-1.53.4.14.79.05,1.19-.25.4-.31.67-.63.83-.97ZM106.23,101.52c-.08-.2-.1-.44-.06-.71.04-.27-.06-.44-.3-.51-.24.14-.48.24-.71.31-.24.07-.56.1-.95.1-.87.75-2.01,1.34-3.39,1.78-1.39.44-2.64.86-3.75,1.27-.48.54-.81.82-1.01.82s-.38.04-.53.1c-.95.2-1.41.39-1.37.56s.06.32.06.46c-.79.2-1.41.51-1.84.92-.44.41-.97.75-1.61,1.02.16.34.2.66.12.97-.08.31-.04.63.12.97.71,0,1.15-.31,1.31-.92.24.2.48.24.71.1.24-.13.52-.17.83-.1,1.11-.81,2.06-1.22,2.85-1.22,1.27-1.09,2.42-1.99,3.45-2.7,1.03-.71,2.38-1.27,4.05-1.68.48-.47.83-.81,1.07-1.02s.55-.37.95-.51ZM105.64,124.13c-.79.34-1.45.59-1.96.76-.52.17-1.05.36-1.61.56-.08.75-.56,1.12-1.43,1.12-.64.48-1.11.8-1.43.97-.32.17-.52.53-.6,1.07-.56.2-.97.36-1.25.46s-.5.25-.65.46c-.24.41-.54.61-.89.61s-.65.14-.89.41c-.56.81-.79,1.29-.71,1.42.08.14.12.31.12.51-1.03.68-1.78,1.27-2.26,1.78-.48.51-.56,1.24-.24,2.19.87-.07,1.27-.05,1.19.05-.08.1-.04.22.12.36.16-.82.44-1.29.83-1.43.4-.14.71-.37.95-.71.16.34.46.48.89.41.44-.07.73.04.89.31,0,.34-.14.56-.42.66-.28.1-.5.29-.65.56-.4.2-.65.17-.77-.1s-.38-.44-.77-.51c-.4.82-.5,1.22-.3,1.22s.3.07.3.2c-.24,0-.6.02-1.07.05-.48.04-.67.15-.59.36.55.41.67.76.36,1.07-.32.31-.62.58-.89.82-.28.24-.54.51-.77.81s-.32.66-.24,1.07c.48-.14.91-.32,1.31-.56.4-.24.91-.36,1.55-.36.24-.47.55-.59.95-.36.4.24.75.15,1.07-.25-.24-.34-.5-.49-.77-.46-.28.03-.34-.12-.18-.46.55-.41,1.05-.63,1.49-.66.43-.03.93-.12,1.49-.25-.24-.2-.1-.54.42-1.02.51-.47,1.01-.81,1.49-1.02.08-.07.22-.15.42-.25.2-.1.42-.2.65-.31.24-.1.46-.19.65-.25.2-.07.26-.1.18-.1.4-.2.79-.22,1.19-.05.4.17.59.15.59-.05,0-.61.2-1.02.59-1.22s.79-.44,1.19-.71c-.24-.61-.52-.98-.83-1.12,0,.34-.16.53-.48.56-.32.04-.56.15-.71.36-.32-.27-.59-.32-.83-.15-.24.17-.48.32-.71.46-.16-.14-.34-.36-.54-.66-.2-.31-.18-.52.06-.66.63.41,1.07.54,1.31.41.24-.14.59-.1,1.07.1.32-.88.65-1.36,1.01-1.42s.46-.34.3-.82c-.64.2-1.01.27-1.13.2s-.18-.24-.18-.51c.79-.61,1.23-1.07,1.31-1.38.08-.3.32-.42.71-.36-.08-.54-.14-.87-.18-.97-.04-.1-.02-.36.06-.76-.16-.54-.12-.98.12-1.32s.28-.71.12-1.12ZM106.71,113.84c-.16-.54-.14-1.07.06-1.58.2-.51.18-1.07-.06-1.68-.64,0-1.09.1-1.37.31-.28.2-.62.41-1.01.61.55-.75.93-1.2,1.13-1.37.2-.17.4-.34.59-.51.2-.17.38-.34.54-.51.16-.17.2-.46.12-.86-.4-.14-.77-.32-1.13-.56s-.85-.36-1.49-.36c-.48.88-.53,1.26-.18,1.12.36-.13.49-.07.42.2-.71.14-1.03.25-.95.36.08.1,0,.19-.24.25-.79.61-1.53.93-2.2.97-.67.04-1.25.22-1.72.56-.64.61-1.01.83-1.13.66-.12-.17-.26-.22-.42-.15-.87.48-1.41.75-1.61.82-.2.07-.46.14-.77.2.24.41.12.76-.36,1.07-.48.31-.95.53-1.43.66-.63.34-1.25.76-1.84,1.27s-.85,1.31-.77,2.39c.63.14,1.05.1,1.25-.1.2-.2.42-.47.65-.81.16.14.36.24.59.3.24.07.36.24.36.51.31-.47.65-.69,1.01-.66.36.03.53-.02.53-.15.71-.07,1.15-.02,1.31.15s.2.29.12.36c-.95.27-1.55.48-1.78.61-.24.14-.52.2-.83.2.08.34-.04.53-.36.56-.32.04-.56.12-.71.25-.64.54-1.19,1.07-1.67,1.58s-.59,1.04-.36,1.58c.63-.61,1.11-.92,1.43-.92.32.14.49.37.54.71.04.34.06.68.06,1.02.48-.27.99-.42,1.55-.46.55-.03.79.15.71.56-.87,0-1.59.31-2.14.92.87,0,1.63-.24,2.26-.71.63-.47,1.43-.78,2.38-.92.24-.47.63-.78,1.19-.92.55-.14,1.07-.31,1.55-.51.55-.34.93-.58,1.13-.71.2-.13.38-.27.53-.41s.32-.24.48-.31c.16-.07.43-.03.83.1.48-.34.91-.65,1.31-.92.4-.27.91-.47,1.55-.61v-1.58c0-.44.08-.93.24-1.48.08-.34-.04-.71-.36-1.12h.48ZM105.64,105.08c-.95-.14-1.43-.15-1.43-.05s-.24.12-.71.05c-.64.48-.97.66-1.01.56-.04-.1-.18-.15-.42-.15-.56.41-1.03.61-1.43.61-.48.54-1.01.97-1.61,1.27s-1.29.59-2.08.87c.08.48-.18.81-.77,1.02-.59.2-1.13.37-1.61.51-.24.68-.95.95-2.14.82.16.27.18.48.06.61s-.28.27-.48.41c-.2.14-.42.27-.65.41-.24.14-.36.34-.36.61,1.11-.27,2.18-.69,3.21-1.27,1.03-.58,2.02-1.13,2.97-1.68.79-.07,1.21-.05,1.25.05.04.1.14.15.3.15.24-.47.46-.85.65-1.12.2-.27.57-.31,1.13-.1,0-.41.18-.75.54-1.02.36-.27.73-.37,1.13-.31.48-.14.81-.27,1.01-.41.2-.14.5-.2.89-.2.48-.54.81-.88,1.01-1.02.2-.13.38-.34.53-.61ZM103.97,120.87c.4-.61.36-1.05-.12-1.32-.48.27-.77.37-.89.31s-.26-.1-.42-.1c-.87.61-1.65,1.15-2.32,1.63-.67.48-1.45.78-2.32.92-.64.48-.93.76-.89.86.04.1-.02.15-.18.15-.71.14-1.43.42-2.14.87-.71.44-1.43.83-2.14,1.17,0,.41-.14.66-.42.76s-.5.25-.65.46c.16.54.28.92.36,1.12.4-.07.75-.24,1.07-.51.32-.27.63-.24.95.1.55-.82,1.15-1.46,1.78-1.93.24-.2.49-.31.77-.31s.49-.07.65-.2c0-.27.12-.46.36-.56s.59-.12,1.07-.05c.48-.34.75-.59.83-.76.08-.17.16-.29.24-.36.4-.2.79-.32,1.19-.36.4-.03.4-.19,0-.46.95-.41,1.57-.75,1.84-1.02.28-.27.73-.41,1.37-.41ZM109.69,75.24c-1.83.14-3.39.54-4.7,1.22-1.31.68-2.72,1.09-4.22,1.22.16.27.04.54-.36.82-.4.27-.79.34-1.19.2-.48-.2-1.11-.31-1.9-.31.16.41.12.71-.12.92-.24.2-.48.39-.71.56-.24.17-.48.32-.71.46-.24.14-.52.17-.83.1-.48.41-.79.58-.95.51-.16-.07-.4-.07-.71,0-.24.75-.36,1.1-.36,1.07s-.2-.05-.59-.05c-.64.95-.87,1.58-.71,1.88s.16.66,0,1.07c1.35-.27,2.44-.7,3.27-1.27.83-.58,1.84-1.03,3.03-1.37.48-.68,1.15-1.05,2.02-1.12,1.35-1.02,2.97-1.97,4.88-2.85,1.9-.88,3.53-1.9,4.88-3.06ZM105.76,122.19c-.95-.34-1.43-.39-1.43-.15s-.04.42-.12.56c-.56.27-.95.37-1.19.3-.24-.07-.52-.07-.83,0-.56.41-.91.7-1.07.87-.16.17-.36.22-.6.15-.71.27-1.07.51-1.07.71-.16,0-.4.14-.71.41s-.52.51-.59.71h-1.31c-.4.61-.83.98-1.31,1.12-.56.82-.93,1.26-1.13,1.32s-.42.14-.65.2c-.24.14-.48.2-.71.2s-.44.04-.59.1c.16.48.08.76-.24.87-.32.1-.52.32-.6.66.16.2.3.51.42.92.12.41.38.54.77.41.32-.34.59-.52.83-.56.24-.03.44-.02.6.05.16-.27.24-.58.24-.92s.2-.41.59-.2c.16-.34.34-.68.54-1.02.2-.34.49-.58.89-.71.55.07.93-.02,1.13-.25.2-.24.4-.46.6-.66.2-.2.46-.36.77-.46.31-.1.71-.08,1.19.05.4-.95.93-1.68,1.61-2.19.67-.51,1.49-.93,2.44-1.27.08-.34.3-.56.65-.66.36-.1.65-.29.89-.56ZM92.79,76.36c-.56.41-.87.7-.95.86-.08.17,0,.32.24.46.16-.41.31-.64.48-.71.16-.07.24-.27.24-.61ZM94.93,121.17c-.64.07-1.07.1-1.31.1s-.52-.07-.83-.2c.24-.14.54-.22.89-.25.36-.03.65-.12.89-.25l.36.61ZM97.07,74.73c-.79-.07-1.39.02-1.78.25-.4.24-.79.53-1.19.87.31-.14.59-.25.83-.36s.6-.08,1.07.05c0-.34.18-.49.54-.46.36.04.53-.08.53-.36ZM96.6,131.05c-.16.34-.46.56-.89.66-.44.1-.81.25-1.13.46.16-.34.44-.58.83-.71.4-.13.79-.27,1.19-.41ZM101.83,113.33c-.64.34-1.05.48-1.25.41-.2-.07-.46-.07-.77,0,.55.41.79.68.71.81-.08.14-.04.2.12.2l-1.43.82c0-.34.06-.58.18-.71.12-.13.26-.27.42-.41-.71-.13-1.05.07-1.01.61.04.54-.26.88-.89,1.02.08-.47-.04-.66-.36-.56-.32.1-.6.05-.83-.15l.48,1.32c-.56.07-.95,0-1.19-.2s-.64-.27-1.19-.2c1.11-.2,1.7-.34,1.78-.41.4-.75.93-1.32,1.61-1.73.67-.41,1.41-.61,2.2-.61,0-.68.18-.87.54-.56s.65.42.89.36ZM96.72,120.76c-.95-.13-1.39-.37-1.31-.71.48.14.79.25.95.36.16.1.28.22.36.36ZM98.62,133.39c-.16.07-.36.14-.59.2s-.52.07-.83,0c.24.54.14.88-.3,1.02-.44.14-.85.1-1.25-.1.71-.34,1.17-.61,1.37-.81.2-.2.4-.39.59-.56.2-.17.4-.25.6-.25s.34.17.42.51ZM106.95,142.66c0-.48-.22-.85-.65-1.12-.44-.27-.85-.2-1.25.2-.71-.07-1.25.02-1.61.25-.36.24-.73.53-1.13.86-.4.27-.75.53-1.07.76-.32.24-.67.42-1.07.56,0,.14-.1.27-.3.41-.2.14-.44.27-.71.41s-.56.29-.83.46c-.28.17-.46.39-.54.66,1.03.2,1.92.24,2.68.1.75-.13,1.47-.36,2.14-.66.67-.31,1.31-.65,1.9-1.02.6-.37,1.25-.7,1.96-.97l.48-.92ZM100.4,133.7c0,.41-.28.73-.83.97-.56.24-1.03.46-1.43.66-.08.07-.16-.07-.24-.41-.08-.34.08-.75.48-1.22.24.14.6.25,1.07.36s.79-.02.95-.36ZM103.85,87.67c-.48.07-.91.2-1.31.41-.4.2-.8.24-1.19.1-.48.14-.89.39-1.25.76-.36.37-.85.49-1.49.36,0-.47.22-.69.65-.66.44.04.57-.15.42-.56.48-.27.97-.48,1.49-.61s.85-.44,1.01-.92c.16.34.44.53.83.56.4.04.67.22.83.56ZM103.38,130.85c-.79.48-1.27.68-1.43.61-.16-.07-.44-.07-.83,0-.24.61-.34.93-.3.97.04.04.06.12.06.25-.24.07-.46.15-.65.25-.2.1-.42.19-.65.25-.56.14-.73.05-.54-.25.2-.31.38-.59.54-.87.48-.2.83-.44,1.07-.71.24-.27.53-.49.89-.66.36-.17.71-.25,1.07-.25s.61.14.77.41ZM101,77.18c-.64.14-1.05.27-1.25.41-.2.14-.22.27-.06.41.24-.14.48-.27.71-.41.24-.13.44-.27.6-.41ZM101.95,81.56c-.16-.07-.38-.05-.65.05s-.5.08-.65-.05c.48.14.79.25.95.36.16.1.28-.02.36-.36ZM104.09,112.11c-.24.14-.46.15-.65.05-.2-.1-.42-.22-.65-.36-.48.61-.67.98-.6,1.12.08.14.04.27-.12.41-.16-.27-.34-.44-.53-.51-.2-.07-.38-.17-.54-.31.31-.2.63-.36.95-.46.32-.1.55-.32.71-.66.79.14,1.27.38,1.43.71ZM106.35,74.94c-1.03,0-1.98.2-2.86.61-.87.41-1.59.88-2.14,1.42,1.03-.34,1.94-.63,2.74-.86.79-.24,1.55-.63,2.26-1.17ZM104.33,127.18c-.87-.07-1.35-.05-1.43.05-.08.1-.2.12-.36.05-.16-.34.06-.49.65-.46.6.04.97.15,1.13.36ZM104.45,80.54c-.64.61-1.23.92-1.78.92.24-.2.48-.46.71-.76s.59-.36,1.07-.15ZM105.64,98.56c-.32-.14-.63-.22-.95-.25-.32-.03-.56.09-.71.36,0,.2-.08.41-.24.61s-.12.41.12.61c.16-.27.38-.44.65-.51s.54.03.77.31c-.24-.34-.24-.53,0-.56s.36-.22.36-.56ZM106.71,107.02l-1.67-.71c.55.61.89.92,1.01.92s.34-.07.65-.2ZM110.4,146.73c-.08-.34-.22-.56-.42-.66s-.34-.32-.42-.66c-.64,0-1.09.07-1.37.2s-.61.27-1.01.41c.16-.47.32-.81.48-1.02.16-.2.43-.27.83-.2-.16-.47-.52-.71-1.07-.71-.71-.14-1.11-.02-1.19.36-.08.37-.28.66-.6.87,0,.2.16.15.48-.15.31-.31.67-.39,1.07-.25-.24.14-.44.51-.59,1.12.71.61,1.39.9,2.02.87.63-.03,1.23-.08,1.78-.15ZM110.04,99.38c-.32-.27-.65-.27-1.01,0s-.58.58-.65.92c.4-.07.69-.2.89-.41.2-.2.46-.37.77-.51ZM111.23,85.12c-.4.14-.85.3-1.37.51s-.61.54-.3,1.02c.24-.14.48-.27.71-.41.24-.13.28-.37.12-.71l.83-.41ZM140.26,147.14c-.16-.14-.38-.19-.65-.15-.28.04-.5.12-.65.25.4-.07.69-.03.89.1.2.14.34.07.42-.2ZM159.66,137.06c-.71.2-1.41.39-2.08.56-.67.17-1.21.46-1.61.87-1.27.2-2.14.44-2.62.71-.79.68-1.11,1.04-.95,1.07.16.04.24.15.24.36-.48.14-.83.27-1.07.41-.24.14-.64.17-1.19.1-.71,1.15-1.86,2-3.45,2.55-.16.61-.73,1.09-1.72,1.43-.99.34-2.01.61-3.04.81-.24.41-.48.65-.71.71-.24.07-.4.24-.48.51.48.14.93.12,1.37-.05.44-.17.97-.19,1.61-.05.24-.34.46-.64.65-.92.2-.27.5-.51.89-.71.63-.27,1.19-.61,1.67-1.02s1.15-.68,2.02-.82c.48-.34.83-.56,1.07-.66.24-.1.55-.15.95-.15.87-.82,1.57-1.39,2.08-1.73.52-.34,1.01-.64,1.49-.92.48-.27.97-.51,1.49-.71.51-.2,1.01-.27,1.49-.2-.16-.54.06-.92.65-1.12s1.01-.54,1.25-1.02ZM160.61,141.03c-.32-.68-.38-1.03-.18-1.07.2-.03.26-.19.18-.46-.87-.54-1.53-.66-1.96-.36-.44.31-.77.39-1.01.25-.48.61-.75.88-.83.81-.08-.07-.2,0-.36.2-.24.2-.38.41-.42.61-.04.2-.26.24-.65.1.16.34.54.46,1.13.36s1.09-.02,1.49.25c-.63.48-1.35.59-2.14.36-.79-.24-1.55-.52-2.26-.87-.08.48-.26.82-.54,1.02-.28.2-.65.37-1.13.51.48.2.91.24,1.31.1-.24.95-.56,1.46-.95,1.53-.4.27-1.07.41-2.02.41-.48.48-.87.85-1.19,1.12-.4.41-.67.65-.83.71-.16.07-.24.17-.24.31.63-.14,1.49-.15,2.56-.05,1.07.1,1.84-.15,2.32-.76.24-.2.5-.31.77-.31s.5.07.65.2c.79-.95,1.39-1.39,1.78-1.32.4.07.91.04,1.55-.1-.08-.27-.24-.42-.48-.46-.24-.03-.36-.19-.36-.46.95.14,1.39-.1,1.31-.71.32-.2.58-.37.77-.51s.38-.1.54.1c.32.07.52-.08.6-.46.08-.37.28-.73.59-1.07ZM160.01,130.64c-.87.54-1.45.9-1.73,1.07-.28.17-.54.09-.77-.25,0,.48-.12.78-.36.92-.24.14-.44.37-.59.71-.16.27-.48.54-.95.82-.4.34-.58.61-.54.81.04.2.1.38.18.51-.64.34-1.01.54-1.13.61-.12.07-.3.24-.54.51.4.2.71.17.95-.1.24-.27.52-.24.83.1.24-.54.48-.82.71-.82s.6-.03,1.07-.1c.63.27.91.51.83.71s-.16.41-.24.61c.79-.27,1.23-.58,1.31-.92.08-.34.32-.51.71-.51-.63.27-.99.46-1.07.56-.08.1-.2.12-.36.05-.08-.27-.1-.52-.06-.76.04-.24-.1-.42-.42-.56,0-.81.48-1.22,1.43-1.22.08-.47.26-.88.54-1.22.28-.34.34-.85.18-1.53ZM160.97,146.33c-.56-.27-.87-.36-.95-.25-.08.1-.28.12-.6.05.08-.61.44-1.05,1.07-1.32.63-.27.67-.82.12-1.63-.64.14-1.27.1-1.9-.1,0,.68-.18,1.14-.54,1.38-.36.24-.71.48-1.07.71-.36.24-.69.44-1.01.61-.32.17-.64.22-.95.15-.79.68-1.09,1.05-.89,1.12.2.07.46.07.77,0,.31-.07.65-.17,1.01-.31.36-.13.65-.24.89-.31.79-.41,1.27-.61,1.43-.61,0,.34.1.53.3.56.2.04.42.12.65.25,0,.14.24.2.71.2s.79-.17.95-.51ZM159.77,128.71v-.97c0-.37-.08-.66-.24-.87-.87.41-1.41,1-1.61,1.78-.2.78-.58,1.51-1.13,2.19.48,0,.83.03,1.07.1s.55,0,.95-.2c-.08-.27-.22-.44-.42-.51-.2-.07-.38-.17-.54-.31.48-.54.89-.83,1.25-.87.36-.03.57-.15.65-.36Z"/>
    <path class="st3" d="M244.73,73.82c-.87.34-1.71.63-2.5.86-.8.24-1.59.53-2.38.87-1.51.82-2.64,1.48-3.39,1.99-.76.51-1.65.97-2.68,1.38-.4.61-1.15,1.09-2.26,1.42-.48.48-.95.93-1.43,1.38s-.99.9-1.55,1.37c-.16.2-.28.43-.36.66-.08.24-.32.39-.72.46-.48,1.29-.85,2.26-1.13,2.9s-.73,1.14-1.37,1.48c.08.88-.2,1.46-.83,1.73-.08.82-.32,1.72-.71,2.7-.4.98-.79,1.85-1.19,2.6-.16.27-.2.51-.12.71s.08.41,0,.61c-.16.54-.4,1.07-.71,1.58-.32.51-.48,1.07-.48,1.68-.95,1.36-1.55,2.85-1.78,4.48-.24,1.63-.76,3.09-1.55,4.38-.4.68-.58,1.31-.53,1.89.04.58-.26.93-.89,1.07.31.48.31.93,0,1.38-.32.44-.56.9-.72,1.37-.24.54-.36,1.11-.36,1.68s-.32,1-.95,1.27c-.79,1.9-1.37,3.72-1.72,5.45-.36,1.73-.94,3.41-1.73,5.04.16.27.2.46.12.56-.08.1-.12.32-.12.66-.48.41-.87.95-1.19,1.63-.32.68-.48,1.32-.48,1.93-.16.34-.42.7-.78,1.07-.36.37-.61.76-.78,1.17-.16.2-.22.42-.18.66.04.24.02.46-.06.66-.48,1.15-1.05,2.28-1.73,3.36-.68,1.09-1.21,2.17-1.61,3.26-.24,1.02-.52,1.65-.83,1.89-.32.24-.36.59-.12,1.07-.32.41-.6.9-.83,1.48-.24.58-.36,1.1-.36,1.58-.08.41-.3.93-.65,1.58s-.65,1.2-.89,1.68c-.79-.07-1.63-.2-2.5-.41-.64-.82-1.23-1.63-1.78-2.45-.56-.82-1.27-1.56-2.14-2.24.32-.2.34-.36.06-.46-.28-.1-.38-.32-.3-.66-.87-1.15-1.63-2.36-2.26-3.61-.64-1.26-.91-2.73-.83-4.43-.24-.34-.44-.66-.59-.97-.16-.3-.44-.59-.83-.86.4-.27.51-.65.36-1.12-.16-.47-.28-.88-.36-1.22-.71-.34-1.23-.9-1.55-1.68-.32-.78-.71-1.37-1.19-1.78-.24-1.97-.83-3.94-1.78-5.91-.64-.14-1.15-.05-1.55.25-.4.31-.83.29-1.31-.05-.08-.75.12-1.29.6-1.63.48-.34.87-.75,1.19-1.22,0-.88-.28-1.63-.83-2.24-.56-.61-.75-1.26-.59-1.94-.71-.47-1.01-.76-.89-.86.12-.1.18-.32.18-.66-.48-.14-.79-.34-.95-.61-.16-.27-.28-.58-.36-.92-.08-.34-.18-.66-.3-.97s-.42-.53-.89-.66h-1.31c.24-.68.42-1.17.54-1.48s.38-.52.77-.66c-.24-.61-.5-1.22-.77-1.83-.28-.61-.46-1.39-.54-2.34-.4-.54-.75-1.03-1.07-1.48-.32-.44-.52-1.03-.59-1.78-.32-.41-.71-.71-1.19-.92-.48-.2-.83-.51-1.07-.92.4-.34.4-.71,0-1.12-.48.07-.82.07-1.01,0-.2-.07-.54,0-1.01.2-.16-.82.04-1.34.59-1.58.55-.24.67-.73.36-1.48-.16-.13-.36-.25-.59-.36s-.4-.29-.48-.56c.4-.75.26-1.48-.42-2.19-.67-.71-1.33-1.27-1.96-1.68.08-.34.26-.58.54-.71.28-.13.49-.34.65-.61-.08-.68-.1-1.2-.06-1.58.04-.37-.14-.73-.54-1.07.08-1.02-.04-1.46-.36-1.32-.32.14-.64.24-.95.31-.48-.41-.7-.71-.65-.92.04-.2-.02-.37-.18-.51.87-.47,1.33-.92,1.37-1.32.04-.41-.3-.65-1.01-.71.4-.27.46-.61.18-1.02-.28-.41-.34-.78-.18-1.12-.56-.2-.93-.61-1.13-1.22-.2-.61-.26-1.15-.18-1.63-.24-.34-.54-.68-.89-1.02s-.46-.71-.3-1.12c-.63-.54-1.21-1.15-1.72-1.83-.52-.68-1.21-1.19-2.08-1.53-1.43.14-2.95.05-4.58-.25-1.63-.31-3.03-.39-4.22-.25-.55-.14-1.01-.41-1.37-.82-.36-.41-.3-.85.18-1.32,1.59-.13,3.15-.12,4.7.05,1.55.17,3.15.32,4.82.46,1.03.14,2.08.2,3.15.2s2.16.04,3.27.1c1.19.14,2.4.27,3.63.41,1.23.14,2.28.17,3.15.1,1.43-.07,2.84-.14,4.22-.2,1.39-.07,2.72-.07,3.99,0,.71.07,1.41.04,2.08-.1.67-.14,1.37-.2,2.08-.2,1.51,0,3.03-.13,4.58-.41,1.55-.27,2.99-.24,4.34.1.95.14,1.88.15,2.8.05s1.76.02,2.56.36c.16.75.02,1.26-.42,1.53-.44.27-.93.51-1.49.71-.48-.34-.95-.54-1.43-.61-.48-.07-.95-.08-1.43-.05-.48.03-.97.05-1.49.05s-1.05-.1-1.61-.31c-.16.34-.36.58-.59.71-.24.14-.44.34-.6.61-.4-.13-.71-.15-.95-.05s-.44.09-.6-.05c-.79.48-1.35.54-1.67.2-.48.54-.61.8-.42.76.2-.03.22.09.06.36-.16,0-.4.07-.71.2-.32.14-.6.14-.83,0,.08.95,0,1.51-.24,1.68-.24.17-.52.39-.83.66-.08,1.02.08,1.97.48,2.85.4.68.65,1.37.77,2.09s.49,1.14,1.13,1.27c-.4.41-.46.85-.18,1.32.28.48.46.98.54,1.53.71,1.02,1.35,1.59,1.9,1.73.08,1.36.18,2.43.3,3.21.12.78.54,1.44,1.25,1.99.08,1.16.36,2.12.83,2.9.48.78.75,1.75.83,2.9,1.03.41,1.41.63,1.13.66-.28.04-.42.19-.42.46.16.14.38.14.65,0s.5-.1.65.1c.16.27.1.51-.18.71-.28.2-.5.41-.65.61.08.41.32.66.71.76s.79.22,1.19.36c-.32.34-.46.53-.42.56s-.02.19-.18.46c.87-.2,1.31-.25,1.31-.15s-.06.24-.18.41-.24.32-.36.46c-.12.14-.1.31.06.51.08.27.28.39.59.36.32-.03.55.02.71.15,0,.61-.2,1.09-.59,1.43.24.34.59.44,1.07.3.48-.13.79.04.95.51,0,.27-.1.44-.3.51-.2.07-.34.24-.42.51,0,.48.18.8.54.97s.69.42,1.01.76c-.32.54-.4,1.09-.24,1.63.16.54.55.88,1.19,1.02.24.75.43,1.53.59,2.34.16.81.36,1.59.59,2.34.24.75.57,1.41,1.01,1.99.44.58,1.09,1,1.96,1.27-.24.81-.26,1.26-.06,1.32.2.07.38.17.53.31,0,.34-.02.66-.06.97-.04.31.02.56.18.76.32-.07.77-.17,1.37-.3s.81-.58.65-1.32c.48-.61.75-.97.83-1.07.08-.1.19-.15.36-.15,1.51-3.67,3.01-7.18,4.52-10.54s2.7-6.87,3.57-10.54c.4-.54.65-1.17.78-1.89.12-.71.34-1.41.65-2.09.16-.41.42-.8.77-1.17.36-.37.61-.83.78-1.38.24-.61.4-1.15.48-1.63.08-.48.24-1.09.48-1.83.63-.95.91-1.63.83-2.04-.08-.41-.04-.78.12-1.12.16-.34.32-.61.48-.81.16-.2.28-.44.36-.71.16-.95.16-1.88,0-2.8-.16-.92-.08-1.85.24-2.8-.16-.2-.36-.44-.6-.71-.24-.27-.28-.54-.12-.82-.48-.75-1.11-1.36-1.91-1.83-.79-.47-1.62-.92-2.5-1.32-.87-.41-1.71-.85-2.5-1.32-.79-.47-1.43-1.09-1.91-1.83-.63.14-1.25.12-1.84-.05s-1.25-.29-1.96-.36c-.16-.27-.32-.59-.48-.97-.16-.37-.2-.66-.12-.87.08-.2.26-.32.53-.36.28-.03.49-.12.65-.25.55.34,1.35.49,2.38.46,1.03-.03,1.78.22,2.26.76,1.66-.2,3.47-.17,5.41.1,1.94.27,3.79.27,5.53,0,1.51.2,3.05.29,4.64.25,1.58-.03,3.17-.1,4.76-.2s3.13-.17,4.64-.2c1.51-.03,2.97.05,4.4.25.16.34.16.58,0,.71-.16.14-.16.37,0,.71ZM184.17,74.53c-.4.07-.6-.03-.6-.31s-.16-.41-.48-.41c-.32.81-.58,1.27-.77,1.37-.2.1-.42.22-.65.36-.08-.61-.06-.95.06-1.02.12-.07.22-.2.3-.41-.24-.13-.44-.17-.6-.1-.16.07-.3.17-.42.31-.12.14-.26.27-.42.41-.16.14-.36.17-.6.1,0,.34-.22.58-.65.71-.44.14-.77.07-1.01-.2-.63.2-.95.36-.95.46s-.08.15-.24.15c-.16-.27-.44-.42-.83-.46-.4-.03-.79-.05-1.19-.05.95-.27,1.7-.37,2.26-.31.55.07,1.03-.03,1.43-.31-.4-.34-.79-.41-1.19-.2-.4.2-.79.2-1.19,0-.08-.07-.22-.13-.42-.2-.2-.07-.46-.17-.77-.31-.48.34-.89.54-1.25.61-.36.07-.81,0-1.37-.2.16.34.2.56.12.66-.08.1-.2.15-.36.15h-.42c-.12,0-.14.1-.06.31-.4-.14-.52-.29-.36-.46.16-.17.24-.39.24-.66-.64-.07-1.15-.02-1.55.15-.4.17-.91.25-1.55.25-.08-.2-.22-.37-.42-.51-.2-.13-.38-.27-.54-.41-.08-.47-.46-.68-1.13-.61s-1.41.07-2.2,0c.16.54.44.93.83,1.17.4.24.79.49,1.19.76.48-.47.77-.76.89-.87s.26-.12.42-.05c.08.34.24.51.48.51s.36.2.36.61c-.32,0-.62.02-.89.05-.28.04-.62.09-1.01.15.16.48.24.78.24.92s.08.24.24.3c.79.68,1.35.95,1.67.82,0,.34-.04.56-.12.66-.08.1-.16.32-.24.66.4.68,1.03,1.26,1.9,1.73-.71.14-1.03.25-.95.36s-.04.29-.36.56c.16.14.32.27.48.41s.24.37.24.71h1.31c-.4.82-.5,1.38-.3,1.68.2.31.61.39,1.25.25.24-.47.46-.76.65-.87.2-.1.49-.08.89.05.31-.61.71-.95,1.19-1.02.63-.34,1.13-.63,1.49-.86s.81-.22,1.37.05c0-.27.04-.61.12-1.02.08-.41.24-.68.48-.82.63.41.99.68,1.07.82.55,0,.95-.17,1.19-.51-.32-.61,0-.95.95-1.02.95-.07,1.63-.1,2.02-.1-.79-.34-1.15-.65-1.07-.92.08-.27.08-.47,0-.61.4.2.73.19,1.01-.05.28-.24.49-.49.65-.76l-1.9-.1c-.32.27-.58.36-.77.25-.2-.1-.38-.22-.54-.36.95-.47,1.59-.83,1.9-1.07.32-.24.75-.39,1.31-.46l.12-.92ZM184.29,82.17c.08-.48.02-.82-.18-1.02-.2-.2-.22-.54-.06-1.02-.87.41-1.51.61-1.9.61s-.83.04-1.31.1c-.08.48-.56.71-1.43.71-.79.41-1.13.7-1.01.87s.1.36-.06.56c-.24-.2-.44-.27-.59-.2-.16.07-.34.17-.54.31-.2.14-.38.27-.53.41-.16.14-.36.14-.6,0-.95.48-1.61.93-1.96,1.38-.36.44-.93.7-1.73.76-.16.48-.3.7-.42.66-.12-.03-.34-.02-.65.05,0,.34.16.71.48,1.12.48-.07.85-.25,1.13-.56.28-.31.73-.46,1.37-.46.24-.54.65-.88,1.25-1.02.6-.13,1.05-.44,1.37-.92.87-.34,1.67-.8,2.38-1.38.71-.58,1.55-1.03,2.5-1.37.08-.34.28-.59.6-.76.32-.17.67-.19,1.07-.05-1.35,1.56-3.13,2.68-5.35,3.36,0,.27-.08.46-.24.56s-.36.17-.59.2-.46.08-.65.15c-.2.07-.3.2-.3.41.55.14.99,0,1.31-.41.32-.41.67-.44,1.07-.1-.56.34-1.11.61-1.67.81-.56.2-1.03.58-1.43,1.12-.4.14-.83.27-1.31.41s-.89.29-1.25.46-.64.41-.83.71-.22.7-.06,1.17c.4.14.69.14.89,0,.2-.14.38-.14.54,0,.16-.61.51-1.03,1.07-1.27.55-.24,1.15-.42,1.78-.56-.08-.34.18-.73.77-1.17.6-.44,1.09-.69,1.49-.76.55-.2.93-.34,1.13-.41.2-.07.22-.24.06-.51.79-.34,1.15-.58,1.07-.71-1.43.41-2.14.44-2.14.1,1.03-.34,2.02-.68,2.97-1.02.95-.34,1.78-.78,2.5-1.32ZM178.81,90.01c-.16.27-.42.46-.77.56s-.7.02-1.01-.25c0,.41-.08.66-.24.76-.16.1-.44.12-.83.05-.08.41-.4.75-.95,1.02-.56.27-.95.34-1.19.2-.08.34-.3.6-.65.76-.36.17-.5.53-.42,1.07.4.07.63.22.71.46.08.24.04.53-.12.87.31.14.59.05.83-.25s.63-.32,1.19-.05c.31-.68.63-.98.95-.92.32.07.55-.07.71-.41.08-.34.14-.7.18-1.07.04-.37.34-.52.89-.46.24-.54.36-.95.36-1.22.24-.07.43-.24.59-.51.16-.27.08-.47-.24-.61ZM174.29,82.57c-.24-.07-.48-.12-.71-.15s-.44-.12-.6-.25c.55,0,.91.02,1.07.05.16.03.24.15.24.36ZM188.57,92.45c-.24-.14-.36-.36-.36-.66s-.12-.52-.36-.66c-.4.14-.85.37-1.37.71-.52.34-.97.44-1.37.31-.24.48-.58.82-1.01,1.02-.44.2-.81.48-1.13.82-.64-.14-1.07-.03-1.31.3-.24.34-.59.65-1.07.92-.64.2-1.07.34-1.31.41-.24.07-.4.04-.48-.1.4-.14.55-.37.48-.71-.08-.34.12-.54.59-.61-1.11.07-2.16.38-3.15.92-.99.54-1.89,1.15-2.68,1.83.24.34.55.61.95.82.79.27,1.23.49,1.31.66.08.17.16.19.24.05.55-.47,1.23-.87,2.02-1.17.79-.31,1.59-.63,2.38-.97-1.11.88-2.12,1.49-3.03,1.83-.91.34-1.69.88-2.32,1.63.63.27,1.15.29,1.55.05.4-.24.67-.52.83-.86.95-.2,1.74-.52,2.38-.97.63-.44,1.23-.93,1.78-1.48h.89c.28,0,.61-.07,1.01-.2.24-.27.51-.56.83-.87.32-.31.6-.56.83-.76-.87-.07-1.47.1-1.78.51-.32.41-.87.61-1.67.61-.87.27-1.31.34-1.31.2.16-.2.34-.37.54-.51.2-.14.38-.31.54-.51.48.2.85.2,1.13,0,.28-.2.57-.44.89-.71.95-.34,1.84-.59,2.68-.76.83-.17,1.45-.52,1.84-1.07ZM177.15,79.72c-.24.14-.44.29-.6.46-.16.17-.44.29-.83.36.08-.34.26-.54.54-.61.28-.07.57-.13.89-.2ZM177.62,89.6c-.32-.68-.73-.97-1.25-.87-.52.1-.7.46-.54,1.07.71-.47,1.15-.59,1.31-.36.16.24.32.29.48.15ZM189.64,99.18c-.56.27-1.17.48-1.84.61-.67.14-1.05.48-1.13,1.02-1.03.14-1.61.32-1.72.56-.12.24-.38.29-.77.15-.16.27-.48.54-.95.82-.48,0-.91.15-1.31.46-.4.31-.77.58-1.13.82-.36.24-.73.36-1.13.36s-.79-.27-1.19-.82c.87-.34,1.61-.81,2.2-1.42.6-.61,1.45-.98,2.56-1.12.16-.68.54-1.12,1.13-1.32.6-.2,1.05-.58,1.37-1.12.79-.41,1.51-.76,2.14-1.07.63-.3,1.11-.73,1.43-1.27-2.14.75-4.3,1.63-6.48,2.65-2.18,1.02-4.19,2.14-6.01,3.36.16.07.24.24.24.51s-.04.48-.12.61c.31.14.55.36.71.66.16.31.32.63.48.97s.34.66.54.97c.2.31.49.49.89.56.4,0,.65-.1.77-.31s.34-.17.65.1c.32-.54.67-.81,1.07-.81.16-.27.31-.52.48-.76.16-.24.44-.39.83-.46,1.11-.95,2.22-1.59,3.33-1.93.87-.95,1.55-1.51,2.02-1.68.48-.17.79-.52.95-1.07ZM180.48,87.26c-.64.34-1.23.44-1.78.31-.56-.14-1.03,0-1.43.41.32.68.55,1.02.71,1.02s.32.04.48.1c.63-.81,1.11-1.24,1.43-1.27.32-.03.52-.22.6-.56ZM179.41,79.22c-.64-.47-.85-.7-.65-.66.2.04.22-.08.06-.36.4.34.59.68.59,1.02ZM180.48,86.65c-.16-.41-.38-.59-.65-.56-.28.04-.5.05-.65.05,0,.48.12.66.36.56s.55-.12.95-.05ZM193.09,102.94c-.95-.47-1.65-.54-2.08-.2-.44.34-1.09.54-1.96.61-.08.41-.3.65-.65.71-.36.07-.77.1-1.25.1-1.59,1.02-2.88,1.8-3.87,2.34-.99.54-2.04,1.09-3.15,1.63.08.54.08.95,0,1.22-.08.27.08.51.48.71,2.14-1.02,4.12-2.09,5.95-3.21,1.82-1.12,3.65-2.36,5.47-3.72l1.07-.2ZM186.55,87.77c-.79-.14-1.55.02-2.26.46-.71.44-1.27.9-1.67,1.37-.48.2-.79.39-.95.56-.16.17-.32.32-.48.46-.16.14-.28.27-.36.41-.08.14-.04.3.12.51,1.35-.88,2.7-1.56,4.04-2.04,0-.27.1-.46.3-.56.2-.1.4-.17.59-.2.2-.03.36-.12.48-.25.12-.13.18-.37.18-.71ZM182.5,86.04c-.64-.27-1.19-.47-1.67-.61.16.48.22.82.18,1.02-.04.2-.06.41-.06.61.95-.2,1.47-.54,1.55-1.02ZM195.23,107.02c-.79,0-1.29.17-1.49.51-.2.34-.65.51-1.37.51.63-.54.93-.82.89-.82-.04,0-.06-.07-.06-.2.63-.07,1.03-.47,1.19-1.22-.48-.13-.85-.15-1.13-.05-.28.1-.54.25-.77.46-.24.2-.52.39-.83.56-.32.17-.75.22-1.31.15-.08.34-.3.56-.65.66-.36.1-.61.25-.77.46.24-.82.65-1.31,1.25-1.48.59-.17,1.17-.32,1.72-.46-.16-.41.02-.64.54-.71.52-.07.89-.2,1.13-.41-.71-.14-1.39-.1-2.02.1-.64.2-1.27.48-1.9.81-.87.48-1.41.82-1.61,1.02-.2.2-.5.37-.89.51-.4.2-.83.48-1.31.82-.48.34-.75.68-.83,1.02.48-.34.95-.61,1.43-.82.48-.2.95-.41,1.43-.61-.64,1.09-1.35,1.63-2.14,1.63-.16.41-.54.73-1.13.97-.6.24-1.17.48-1.73.71-.56.24-.99.54-1.31.92-.32.37-.24.87.24,1.48.95-.34,1.78-.85,2.5-1.53.71-.68,1.55-.85,2.5-.51-.64.14-.97.29-1.01.46-.04.17-.46.22-1.25.15,0,.34-.14.63-.42.87-.28.24-.61.32-1.01.25.32.34.54.56.65.66s.34.12.65.05c.32-.48.69-.82,1.13-1.02.44-.2.85-.27,1.25-.2-.16.34-.46.51-.89.51s-.73.1-.89.31c-.16.34-.5.63-1.01.86-.52.24-.85.6-1.01,1.07,1.11-.14,1.98-.49,2.62-1.07.63-.58,1.27-1.17,1.9-1.78.55,0,1.05-.1,1.49-.31.44-.2.85-.42,1.25-.66.4-.24.81-.47,1.25-.71.43-.24.97-.36,1.61-.36,0-.61-.16-.87-.48-.76-.32.1-.56.02-.71-.25-.48.34-.71.63-.71.87s-.16.32-.48.25c-.48-.54-.87-.95-1.19-1.22.63.07,1.17.05,1.61-.05.44-.1.97-.12,1.61-.05.55-.68.77-1.02.65-1.02s-.18-.07-.18-.2c.32-.2.71-.34,1.19-.41.48-.07.75-.31.83-.71ZM183.45,109.66c-.4.14-.77.27-1.13.41-.36.14-.65.34-.89.61.4.07.65.02.77-.15s.38-.19.77-.05l.48-.82ZM185.12,83.8c-.87.27-1.47.44-1.78.51-.79.27-1.23.48-1.31.61-.08.14-.12.31-.12.51.16.14.38.17.65.1.28-.07.5-.13.65-.2.79-.48,1.43-.98,1.9-1.53ZM183.57,93.27c-.16-.14-.46-.24-.89-.31-.44-.07-.65.1-.65.51.24.07.53.12.89.15.36.03.57-.08.65-.36ZM192.62,101.01c-.56-.82-.91-1.26-1.07-1.32-1.27.54-2.34,1.15-3.21,1.83-.87.68-1.86,1.29-2.97,1.83-1.51.68-2.58,1.6-3.21,2.75,1.11-.27,2.04-.73,2.8-1.37.75-.65,1.8-1.03,3.15-1.17.16-.2.28-.39.36-.56.08-.17.24-.29.48-.36.4-.13.73-.29,1.01-.46.28-.17.61-.31,1.01-.41.4-.1.75-.2,1.07-.31.32-.1.52-.25.6-.46ZM185.6,84.61c-.32.2-.7.32-1.13.36s-.73.12-.89.25c.32.34.71.41,1.19.2.48-.2.75-.47.83-.81ZM187.26,90.32c-.71.34-1.47.63-2.26.86-.79.24-1.27.7-1.43,1.38.24,0,.44-.05.6-.15.16-.1.32-.22.48-.36.16-.13.32-.24.48-.31.16-.07.36,0,.6.2,0-.54.22-.85.65-.92.43-.07.73-.31.89-.71ZM192.14,112.72c-.48,0-.97.17-1.49.51-.52.34-.97.68-1.37,1.02-1.03.34-1.89.8-2.56,1.38-.67.58-1.53,1.04-2.56,1.37.08.34.02.54-.18.61-.2.07-.26.24-.18.51.79-.41,1.51-.61,2.14-.61.63-.61,1.25-1.19,1.84-1.73.6-.54,1.21-.75,1.84-.61.32-.54.77-.93,1.37-1.17.6-.24.97-.66,1.13-1.27ZM185.6,99.89c-.16.14-.34.24-.54.31-.2.07-.5.07-.89,0,.63.14,1.05.2,1.25.2s.26-.17.18-.51ZM200.82,120.46c-.16-.27-.34-.41-.53-.41s-.42.04-.65.1c-.24.07-.48.17-.71.31-.24.14-.48.24-.71.31-.08-.68-.02-1.02.18-1.02s.34-.07.42-.2c-.24-.14-.48-.1-.71.1s-.56.24-.95.1c-.08.27-.24.49-.48.66-.24.17-.44.36-.59.56.4.07.63.02.71-.15.08-.17.32-.22.71-.15-.4.88-.73,1.34-1.01,1.38s-.53.05-.77.05c-.56.48-1.07.86-1.55,1.17-.48.31-.91.63-1.31.97-.4.48-.67.7-.83.66s-.44-.02-.83.05c-.08.48-.36.65-.83.51-.48-.14-.91-.07-1.31.2-.16-.47-.14-.85.06-1.12.2-.27.42-.54.65-.82.63-.13,1.17-.37,1.61-.71.44-.34.85-.68,1.25-1.02.4-.34.83-.66,1.31-.97.48-.31,1.07-.49,1.78-.56.08-.41.3-.75.65-1.02.36-.27.75-.52,1.19-.76.44-.24.83-.51,1.19-.82.36-.31.57-.73.65-1.27-.8.27-1.51.58-2.14.92-.64.34-1.03.14-1.19-.61,1.19.41,1.72.44,1.61.1-.12-.34-.14-.71-.06-1.12.55-.2.85-.36.89-.46.04-.1.22-.15.53-.15.16-.41.12-.66-.12-.76s-.4-.29-.48-.56c-.4.14-.73.29-1.01.46-.28.17-.65.25-1.13.25.08.54-.06.85-.42.92-.36.07-.73.14-1.13.2l-.83,1.22c-.79.54-1.43.85-1.9.92,0-.68.08-1.09.24-1.22.4,0,.69-.1.89-.31s.38-.41.54-.61.38-.37.65-.51c.28-.14.69-.17,1.25-.1.32-.47.57-.8.77-.97.2-.17.5-.29.89-.36-.71-.34-1.37-.34-1.96,0-.6.34-1.19.68-1.78,1.02-.6.34-1.19.66-1.78.97-.6.31-1.29.49-2.08.56-.64.68-1.41,1.32-2.32,1.93-.91.61-1.92.85-3.03.71.16.27.28.58.36.92.08.34.24.65.48.92.4-.07.69-.2.89-.41s.54-.24,1.01-.1c.08-.54.34-.86.77-.97.44-.1.85-.29,1.25-.56,0-.34.26-.61.77-.82.51-.2.93-.44,1.25-.71.31.88.22,1.48-.3,1.78-.52.31-.93.29-1.25-.05-.79.54-1.13.85-1.01.92.12.07.14.2.06.41-.4.14-.67.32-.83.56-.16.24-.52.32-1.07.25.08.48-.08.7-.48.66-.4-.03-.59.12-.59.46.87-.14,1.62-.24,2.26-.31.63-.07,1.19-.27,1.67-.61.79-.41,1.11-.63.95-.66-.16-.03-.2-.12-.12-.25.24-.07.46-.2.65-.41.2-.2.42-.24.65-.1-.24.34-.5.68-.77,1.02-.28.34-.73.48-1.37.41-.16.75-.64.95-1.43.61-.32.27-.56.58-.71.92-.16.34-.4.61-.71.82.16.95.34,1.9.54,2.85.2.95.65,1.7,1.37,2.24.4-.34.87-.73,1.43-1.17.55-.44,1.11-.66,1.67-.66.24-.61.55-1.03.95-1.27.4-.24.83-.59,1.31-1.07.24-.14.55-.29.95-.46.4-.17.75-.29,1.07-.36.71-.54,1.03-.73.95-.56-.08.17,0,.19.24.05.16-.2.3-.39.42-.56.12-.17.22-.39.3-.66.4-.54.89-.88,1.49-1.02.59-.14,1.09-.34,1.49-.61ZM189.52,94.59c-.4-.41-.89-.46-1.49-.15-.6.31-1.17.49-1.73.56,0,.61-.28.92-.83.92.71,0,1.41-.14,2.08-.41.67-.27,1.33-.58,1.96-.92ZM191.07,97.85c-.08-.2-.16-.39-.24-.56-.08-.17-.12-.39-.12-.66-.64.2-1.45.54-2.44,1.02-.99.48-1.41.82-1.25,1.02-.63.2-1.11.51-1.43.92,1.19-.41,2.24-.7,3.15-.87.91-.17,1.68-.46,2.32-.87ZM189.76,110.99c-.95.2-1.47.37-1.55.51-.08.14-.16.31-.24.51-.71-.54-1.09-.81-1.13-.81-.04,0-.06-.07-.06-.2.32-.14.61-.25.89-.36s.61-.15,1.01-.15l1.07.51ZM202.49,123.82c-1.35-.2-2.54.09-3.57.87-1.03.78-2.14,1.44-3.33,1.99-.56.61-.85.85-.89.71-.04-.14-.14-.2-.3-.2,0,.54-.26.76-.77.66-.52-.1-.93-.02-1.25.25-.48.68-1.13,1.21-1.96,1.58-.83.37-1.25.93-1.25,1.68.4.14.73.02,1.01-.36.28-.37.57-.66.89-.87,1.59-.47,2.91-1.17,3.99-2.09,1.07-.92,2.36-1.68,3.87-2.29,1.19-.54,1.88-1.02,2.08-1.42.2-.41.69-.58,1.49-.51ZM204.27,125.75c-.48-.2-.89-.25-1.25-.15-.36.1-.67.25-.95.46-.28.2-.58.41-.89.61-.32.2-.64.34-.95.41-.32.54-.79.88-1.43,1.02-.64.14-1.07.44-1.31.92-1.11.41-2.1.9-2.97,1.48-.87.58-1.67,1.21-2.38,1.88-.63.14-1.07.44-1.31.92.31.48.59,1.05.83,1.73.16-.34.38-.51.65-.51h.65c0-.34.26-.64.77-.92.51-.27,1.09-.47,1.72-.61.79-.95,1.92-1.78,3.39-2.49,1.47-.71,2.8-1.44,3.99-2.19.79-.14,1.29-.46,1.49-.97.2-.51.18-1.03-.06-1.58ZM192.02,108.04c.08.41-.04.63-.36.66-.32.04-.52.22-.59.56-.24-.61-.24-.9,0-.87.24.04.4-.08.48-.36h.48ZM206.06,129.52c-.16,0-.4-.03-.71-.1-.32-.07-.59-.03-.83.1-.95.41-1.92,1-2.91,1.78-.99.78-2.04,1.31-3.15,1.58.16.2.1.37-.18.51s-.61.17-1.01.1c-.16.27-.34.53-.53.76-.2.24-.5.36-.89.36-.95.48-1.66.95-2.14,1.43-.48.48-1.03.88-1.67,1.22.08.75.32,1.46.71,2.14.71,0,1.17-.27,1.37-.82.2-.54.61-.82,1.25-.82,1.03-.75,1.78-1.44,2.26-2.09.48-.64,1.11-.97,1.9-.97.31-.34.48-.59.48-.76s.16-.29.48-.36c.79-.41,1.29-.73,1.49-.97.2-.24.49-.32.89-.25-.16,0-.16-.08,0-.25.16-.17.36-.36.59-.56s.49-.41.77-.61c.28-.2.46-.34.54-.41.24-.14.53-.25.89-.36.36-.1.49-.32.42-.66ZM194.64,109.05c-.16-.2-.38-.31-.65-.31s-.5.17-.65.51c.16.14.4.17.71.1.32-.07.52-.17.6-.31ZM204.16,137.36c-.87.95-1.78,1.85-2.74,2.7-.95.85-1.75,1.85-2.38,3,.24.68.3,1.04.18,1.07-.12.04-.26.09-.42.15.08.41-.08.61-.48.61s-.67.1-.83.31c-.4-.27-.59-.76-.59-1.48s.28-1.24.83-1.58c.08-.34.34-.78.77-1.32.43-.54.97-.82,1.61-.82,0-.81.24-1.41.71-1.78.48-.37.91-.76,1.31-1.17-.4-.27-.81-.27-1.25,0-.44.27-.89.68-1.37,1.22-.56.61-.97.93-1.25.97s-.61.12-1.01.25c-.4.68-1.07,1.15-2.02,1.42-.95.27-1.51.75-1.67,1.43-.08.41.2.97.83,1.68.63.71,1.03,1.24,1.19,1.58s.3.54.42.61c.12.07.26.24.42.51.24.88.59,1.46,1.07,1.73.48.27.79.54.95.81.08-.47.28-.88.59-1.22.32-.34.61-.66.89-.97s.48-.63.6-.97c.12-.34.02-.78-.3-1.32.32-.2.54-.37.65-.51.12-.14.34-.2.65-.2.63-.61,1.03-1.41,1.19-2.39.16-.98.55-1.75,1.19-2.29-.08-.47.04-.87.36-1.17.32-.31.28-.59-.12-.87ZM196.3,118.02c-.95.14-1.49.31-1.61.51s-.26.37-.42.51c-.4-.2-.46-.37-.18-.51.28-.14.42-.37.42-.71.48.14.81.14,1.01,0,.2-.13.46-.07.77.2ZM207.61,130.85c-.95.14-1.45.25-1.49.36-.04.1-.14.22-.3.36-.56.48-1.15.78-1.78.92-.64.14-1.07.41-1.31.82-.4.2-.79.54-1.19,1.02-.4.48-1.03.61-1.9.41-.56,1.02-1.35,1.9-2.38,2.65-1.03.75-1.86,1.53-2.5,2.34.79-.48,1.53-.93,2.2-1.38.67-.44,1.45-.8,2.32-1.07.24-.34.58-.68,1.01-1.02.43-.34.93-.47,1.49-.41.4-.47.91-.88,1.55-1.22.63-.34,1.25-.68,1.84-1.02.6-.34,1.11-.73,1.55-1.17.44-.44.73-.97.89-1.58ZM197.49,111.4c-.56-.13-.97-.07-1.25.2-.28.27-.38.54-.3.82.4.07.61,0,.65-.2s.26-.27.65-.2l.24-.61ZM199.4,122.8c-.56.14-1.07.36-1.55.66-.48.31-.71.66-.71,1.07.55-.47,1.27-.78,2.14-.92l.12-.82ZM201.66,121.68c-.24-.34-.46-.42-.65-.25-.2.17-.5.25-.89.25-.16.41-.28.68-.36.82-.08.14.04.3.36.51.24-.2.52-.39.83-.56s.55-.42.71-.76ZM221.77,74.02c-.79-.27-1.69-.41-2.68-.41s-1.89.07-2.68.2c.4.27.75.46,1.07.56s.67.25,1.07.46c.4-.34.95-.47,1.67-.41.71.07,1.23-.07,1.55-.41ZM226.88,75.65c-.4,0-.7.05-.89.15-.2.1-.46.05-.78-.15,0,.41-.22.68-.65.82s-.97.27-1.61.41c0,.41.08.73.24.97.16.24.31.49.48.76.71-.95,1.37-1.54,1.96-1.78.6-.24,1.01-.63,1.25-1.17ZM230.21,77.59c-.48-.07-.78.02-.89.25-.12.24-.42.32-.89.25-.4.61-.95,1.02-1.67,1.22s-1.39.48-2.02.81c-.16.54-.12,1.09.12,1.63.24.54.16.98-.24,1.32.24.07.36.19.36.36s-.02.36-.06.56l-.12.61c-.04.2.06.34.3.41.24-.34.49-.66.77-.97s.46-.66.54-1.07c-.16-.34-.32-.78-.48-1.32.56-.82,1.31-1.51,2.26-2.09.95-.58,1.62-1.24,2.02-1.99ZM234.14,74.12c-.16-.13-.36-.13-.59,0-.24.14-.52.14-.83,0,.31.27.59.39.83.36.24-.03.43-.15.59-.36Z"/>
  </g>
  <path class="st2" d="M137.98,235.69c-.27.42-.61.8-1.01,1.14-.4.34-.85.62-1.35.84-.5.22-.97.33-1.42.33-.31,0-.63-.02-.94-.06s-.63-.06-.94-.06c-.4,0-.67.11-.81.33s-.26.45-.37.69c-.11.24-.28.47-.51.69s-.63.33-1.21.33c-.36,0-.74-.04-1.15-.12s-.81-.12-1.21-.12c-.86,0-1.68.15-2.46.45-.79.3-1.63.45-2.53.45-.76,0-1.91-.11-3.44-.33-1.53-.22-3.07-.56-4.62-1.02-1.55-.46-2.91-1.02-4.08-1.67s-1.75-1.42-1.75-2.3c0-.68.44-1.36,1.31-2.06.88-.7,1.85-1.48,2.93-2.33,1.08-.86,2.06-1.82,2.93-2.9.88-1.08,1.31-2.33,1.31-3.77,0-.84-.19-1.65-.57-2.45-.38-.8-.87-1.54-1.45-2.24-.58-.69-1.25-1.34-1.99-1.94-.74-.6-1.45-1.15-2.12-1.67-.23-.08-.56-.12-1.01-.12-1.21,0-2.43.11-3.64.33s-2.43.33-3.64.33c-.63,0-1.27-.08-1.92-.24-.65-.16-1.09-.56-1.31-1.19-1.17.52-2.34,1.01-3.51,1.46-1.17.46-2.36.87-3.57,1.23-.76.24-1.31.42-1.65.54-.34.12-.58.26-.74.42-.16.16-.27.4-.34.72-.07.32-.24.78-.51,1.37-.18.4-.27.76-.27,1.08v1.07c0,.52-.11.93-.34,1.23-.23.3-.46.58-.71.84s-.48.53-.71.81c-.23.28-.34.64-.34,1.08,0,.36.07.68.2.96l-.07.3c0,.6.18,1.07.54,1.4.36.34.8.6,1.32.78.52.18,1.07.35,1.65.51.58.16,1.1.36,1.55.6.45.24.89.63,1.32,1.17.43.54.81,1.11,1.15,1.73.34.62.62,1.24.84,1.85.22.62.34,1.15.34,1.58v.3h-.88c-1.8,0-3.58.07-5.36.21-1.78.14-3.54.3-5.29.48-1.75.18-3.52.34-5.29.48-1.78.14-3.56.21-5.36.21-.63,0-1.54-.02-2.73-.06-1.19-.04-2.37-.15-3.54-.33-1.17-.18-2.19-.48-3.07-.9-.88-.42-1.31-1.03-1.31-1.82,0-.84.21-1.53.64-2.09.43-.56.99-1.03,1.68-1.4.7-.38,1.48-.7,2.36-.96.88-.26,1.75-.51,2.63-.75.88-.24,1.71-.48,2.49-.72.79-.24,1.45-.56,1.99-.96s.99-1.04,1.35-1.94c.36-.9.65-1.86.88-2.9.23-1.03.43-2.06.61-3.08s.34-1.82.47-2.42c.04-.2.08-.45.1-.75s.04-.61.07-.93c.02-.32.04-.62.07-.9.02-.28.08-.48.17-.6.45-.68.8-1.07,1.05-1.19s.43-.22.54-.3.18-.29.2-.63.03-1.05.03-2.12c0-.48.11-.85.34-1.11s.46-.49.71-.69.48-.39.71-.57c.22-.18.34-.43.34-.75,0-.56-.18-1.07-.54-1.53-.36-.46-.54-.96-.54-1.52,0-.32.09-.6.27-.84.18-.24.39-.46.64-.66.25-.2.46-.41.64-.63.18-.22.27-.48.27-.81,0-.44-.1-.88-.3-1.32s-.3-.88-.3-1.32c0-.32.12-.55.37-.69s.52-.25.81-.33.56-.15.81-.21c.25-.06.37-.15.37-.27-.14-.24-.38-.36-.74-.36-.54,0-.81.26-.81.78-.31-.2-.58-.43-.81-.69s-.34-.55-.34-.87c0-.4.11-.77.34-1.11.23-.34.48-.73.78-1.16s.55-.94.78-1.49c.22-.56.34-1.24.34-2.03,0-.84-.13-1.65-.4-2.42-.27-.78-.4-1.57-.4-2.36,0-.4.1-.8.3-1.19.2-.4.45-.79.74-1.17.29-.38.58-.76.88-1.14.29-.38.5-.78.64-1.22.27-.76.42-1.56.44-2.39s.04-1.67.07-2.51c.02-.84.09-1.66.2-2.48.11-.82.39-1.58.84-2.3.4-.64.72-1.15.94-1.55s.43-.79.61-1.17c.18-.38.34-.8.47-1.25s.27-1.07.4-1.82c.22-1.16.57-2.27,1.05-3.35.47-1.07.8-2.19.98-3.35.09-.87.15-1.62.17-2.24.02-.62.14-1.16.34-1.64s.56-.9,1.08-1.26c.52-.36,1.32-.72,2.39-1.07,1.17-.36,2.34-.61,3.51-.75,1.17-.14,2.34-.21,3.51-.21,1.35,0,2.74.06,4.18.18.13.68.43,1.28.88,1.82.45.54.93,1.07,1.45,1.58.52.52,1.01,1.05,1.48,1.58.47.54.8,1.15.98,1.82.22.92.37,1.78.44,2.6.07.82.44,1.62,1.11,2.42.31.44.47.96.47,1.56,0,.92-.13,1.79-.4,2.63-.27.84-.4,1.69-.4,2.57,0,.52.18,1.37.54,2.57.36,1.2.79,2.48,1.28,3.86.49,1.37.97,2.71,1.42,4,.45,1.3.79,2.3,1.01,3.02.4,1.51.62,3.07.64,4.66.02,1.59.3,3.15.84,4.66.54,1.59,1.01,3.18,1.42,4.75s.67,3.2.81,4.87c.09,1.55.31,3.06.67,4.51.36,1.46.74,2.91,1.15,4.36.4,1.46.78,2.92,1.11,4.39.34,1.48.5,3.01.5,4.6,0,.6-.06,1.22-.17,1.85-.11.64-.42,1.19-.91,1.67.94,1,2.01,2.07,3.2,3.23,1.19,1.15,2.37,2.07,3.54,2.75.45.24,1.15.42,2.09.54.94.12,1.9.27,2.87.45.97.18,1.82.44,2.56.78.74.34,1.11.83,1.11,1.47,0,.44-.13.86-.4,1.28ZM110.14,202.19c0-.36-.16-.83-.47-1.4-.31-.58-.66-1.23-1.05-1.94-.38-.72-.73-1.49-1.05-2.33-.31-.84-.47-1.71-.47-2.63,0-1.07-.18-2.14-.54-3.2-.36-1.06-.61-2.12-.74-3.2-.09-.88-.19-1.84-.3-2.9-.11-1.06-.35-2.05-.71-2.99s-.91-1.71-1.65-2.33c-.74-.62-1.81-.93-3.2-.93-.09.32-.25.55-.47.69-.23.14-.48.26-.78.36-.29.1-.6.19-.91.27-.31.08-.56.22-.74.42.04.12.07.3.07.54,0,.72-.17,1.39-.51,2-.34.62-.64,1.24-.91,1.88-.31.68-.53,1.38-.64,2.12-.11.74-.17,1.46-.17,2.18,0,.64.02,1.26.07,1.86.04.6.07,1.19.07,1.79,0,.92-.09,1.7-.27,2.36s-.38,1.27-.61,1.82c-.23.56-.43,1.08-.61,1.58-.18.5-.27,1.03-.27,1.58,0,1.19.04,2.23.13,3.11.09.88.29,1.61.61,2.18.31.58.76,1.02,1.35,1.32s1.39.45,2.43.45c.72,0,1.76-.08,3.13-.24,1.37-.16,2.74-.43,4.11-.81,1.37-.38,2.56-.87,3.57-1.46,1.01-.6,1.52-1.32,1.52-2.15Z"/>
  <path class="st2" d="M244.47,234.35c-.27.84-.73,1.5-1.38,2-.65.5-1.4.89-2.26,1.16-.85.28-1.76.47-2.73.57s-1.88.15-2.73.15c-1.31,0-2.59-.07-3.84-.21-1.26-.14-2.52-.31-3.78-.51-.67-.08-1.52-.14-2.53-.18-1.01-.04-2.01-.14-3-.3-.99-.16-1.83-.45-2.53-.86-.7-.42-1.05-1.07-1.05-1.95,0-.99.23-1.72.68-2.18.45-.46,1.01-.78,1.69-.96.67-.18,1.41-.29,2.22-.33s1.55-.17,2.23-.39c.67-.22,1.24-.58,1.69-1.08.45-.5.67-1.3.67-2.42,0-.72-.08-1.43-.23-2.15-.16-.72-.33-1.42-.51-2.12-.18-.7-.35-1.4-.51-2.09-.16-.69-.23-1.4-.23-2.12,0-.48.17-.98.5-1.52.34-.54.51-1.15.51-1.82,0-1.24-.11-2.39-.34-3.47-.23-1.07-.58-2.19-1.08-3.35-.31-.76-.47-1.45-.47-2.09,0-.6.15-1.18.44-1.74.29-.56.44-1.15.44-1.79,0-.84-.16-1.64-.47-2.42-.31-.78-.47-1.58-.47-2.42,0-1.11.14-2.21.4-3.29.27-1.08.4-2.17.4-3.29,0-.76-.09-1.59-.27-2.51-.18-.92-.42-1.84-.71-2.78-.29-.94-.6-1.86-.91-2.75-.31-.9-.61-1.7-.88-2.42-.9.36-1.63.83-2.19,1.4s-1.01,1.23-1.35,1.94c-.34.72-.61,1.48-.81,2.27-.2.8-.37,1.57-.5,2.33-.31,1.55-.8,3.07-1.45,4.54-.65,1.48-1.11,2.99-1.38,4.54-.36,1.91-.57,3.81-.64,5.68-.07,1.87-.18,3.74-.34,5.59-.16,1.85-.42,3.7-.78,5.53-.36,1.83-1.01,3.67-1.96,5.5-.36.68-.58,1.32-.67,1.91-.09.6-.14,1.22-.14,1.85,0,.56.02,1.11.07,1.67.05.56.07,1.14.07,1.73,0,1.24-.15,2.16-.44,2.78s-.62,1.12-.98,1.52c-.36.4-.72.79-1.08,1.17-.36.38-.63.94-.81,1.7-.14.64-.51,1.12-1.11,1.46-.61.34-1.32.62-2.12.84s-1.62.4-2.43.54-1.48.33-2.02.57c-.5-.92-1.09-1.77-1.79-2.57-.7-.8-1.34-1.64-1.92-2.51-.63-.91-1.02-1.89-1.18-2.93-.16-1.04-.44-2.07-.84-3.11-.18-.48-.39-.9-.64-1.25-.25-.36-.47-.73-.67-1.11-.2-.38-.38-.77-.54-1.16s-.24-.88-.24-1.44c0-.44.02-.85.07-1.23.04-.38.07-.78.07-1.22,0-.96-.18-1.97-.54-3.05-.72-2.03-1.35-4.02-1.89-5.98-.54-1.95-.92-4-1.15-6.16-.23-1.95-.4-3.92-.54-5.92-.14-1.99-.61-3.92-1.42-5.8-.4-.92-.88-1.79-1.42-2.63-.54-.84-.99-1.71-1.35-2.63-.09-.2-.17-.52-.24-.95s-.16-.9-.27-1.38c-.11-.48-.25-.9-.4-1.28-.16-.38-.33-.59-.5-.63-.23.16-.38.4-.47.72-.31.72-.56,1.22-.74,1.49-.18.28-.35.51-.51.69s-.35.37-.57.57c-.23.2-.54.56-.94,1.07-.36.44-.54.92-.54,1.44,0,.92.23,1.8.67,2.66.45.86.67,1.74.67,2.66,0,.44-.09.89-.27,1.34-.18.46-.27.91-.27,1.35,0,1.15.19,2.3.57,3.44.38,1.14.57,2.28.57,3.44,0,.92-.16,1.8-.47,2.66-.31.86-.47,1.74-.47,2.66s.12,1.91.37,2.84.37,1.88.37,2.84c0,.8-.09,1.57-.27,2.3-.18.74-.37,1.49-.57,2.24s-.39,1.51-.57,2.27c-.18.76-.27,1.53-.27,2.33,0,1.64.36,2.79,1.08,3.47.72.68,1.58,1.19,2.6,1.55,1.01.36,2.06.71,3.14,1.05,1.08.34,2,.97,2.76,1.88-.4.6-.71,1.25-.91,1.94-.2.7-.51,1.35-.91,1.94-.36.52-.73.88-1.11,1.08-.38.2-.76.33-1.15.39-.38.06-.8.12-1.25.18-.45.06-.92.21-1.42.45-.5.24-.84.47-1.05.69-.2.22-.39.42-.57.6-.18.18-.44.32-.78.42-.34.1-.87.15-1.58.15-.77,0-1.53-.08-2.29-.24-.77-.16-1.53-.24-2.29-.24-.81,0-1.6.11-2.36.33-.76.22-1.55.33-2.36.33-.94,0-1.89-.15-2.83-.45-.94-.3-1.79-.72-2.53-1.26-.74-.54-1.35-1.17-1.82-1.91s-.71-1.56-.71-2.48c0-1.36.31-2.39.94-3.11.63-.72,1.43-1.28,2.39-1.7.97-.42,2.01-.78,3.14-1.07,1.12-.3,2.18-.69,3.17-1.17.23-.68.36-1.36.4-2.06.04-.69.07-1.4.07-2.12,0-1.15-.06-2.31-.17-3.47-.11-1.15-.17-2.31-.17-3.47,0-.76.09-1.5.27-2.24.18-.73.27-1.5.27-2.3,0-.4-.07-.78-.2-1.14-.63-1.47-1.02-2.89-1.18-4.24-.16-1.36-.24-2.83-.24-4.42,0-.68.1-1.33.3-1.97.2-.64.43-1.28.67-1.91s.47-1.28.67-1.91c.2-.64.3-1.29.3-1.97,0-1.23-.09-2.45-.27-3.64-.18-1.2-.27-2.41-.27-3.65,0-.8.09-1.57.27-2.33.18-.76.27-1.53.27-2.33s-.18-1.57-.54-2.3c-.36-.73-.54-1.5-.54-2.3,0-.56.17-1.06.5-1.49.34-.44.51-.94.51-1.49,0-.32-.18-.64-.54-.96-.36-.32-.54-.84-.54-1.55,0-.6.03-1.19.1-1.79.07-.6.1-1.19.1-1.79,0-1.19-.23-2.14-.67-2.84s-1-1.24-1.65-1.61c-.65-.38-1.36-.65-2.12-.81-.77-.16-1.47-.33-2.12-.51s-1.2-.39-1.65-.63-.67-.64-.67-1.19c0-.52.33-1.05.98-1.58.65-.54,1.47-1.07,2.46-1.58.99-.52,2.07-1.03,3.24-1.53,1.17-.5,2.25-.94,3.24-1.34.99-.4,1.83-.74,2.53-1.02.7-.28,1.09-.48,1.18-.6.18.28.43.47.74.57s.66.16,1.05.18c.38.02.76.03,1.15.03s.71.04.98.12c.45.12.79.28,1.01.48.22.2.44.4.64.6.2.2.48.4.84.6.36.2.9.38,1.62.54,1.71.4,3,.97,3.88,1.7.88.74,1.32,1.94,1.32,3.62,0,.44-.05.87-.14,1.29-.09.42-.13.85-.13,1.28l1.69,4.24c.13.44.28.89.44,1.35.16.46.28.91.37,1.35.49.36.88.9,1.15,1.61.27.72.46,1.49.57,2.3.11.82.19,1.62.24,2.42s.11,1.47.2,2.03c.13.92.37,1.8.71,2.66.34.86.5,1.74.5,2.66,0,.56-.1,1.11-.3,1.67s-.3,1.14-.3,1.73c0,1.04.16,2.05.47,3.05.31.99.67,1.98,1.08,2.96s.78,1.96,1.11,2.96c.34,1,.53,2.01.57,3.05,0,.48.06,1.22.17,2.21.11,1,.27,2.1.47,3.32.2,1.22.45,2.47.74,3.77.29,1.29.65,2.48,1.08,3.56.43,1.07.92,1.95,1.48,2.63.56.68,1.18,1.02,1.85,1.02.81,0,1.32-.21,1.55-.63.23-.42.36-.9.41-1.46.04-.56.11-1.11.2-1.67.09-.56.4-.96.94-1.19.45-.24.84-.71,1.18-1.4.34-.7.62-1.47.84-2.33s.39-1.7.51-2.51c.11-.82.19-1.45.23-1.88.14-2.07.2-4.21.2-6.39s.04-4.39.13-6.61c.09-2.21.29-4.38.61-6.51.31-2.13.83-4.19,1.55-6.18.14-.32.31-.62.54-.9.22-.28.45-.57.67-.87.23-.3.42-.6.57-.9s.23-.63.23-.98c0-.24-.07-.45-.2-.63-.14-.18-.28-.33-.44-.45s-.31-.24-.44-.36c-.14-.12-.2-.26-.2-.42,0-.2.07-.35.2-.45.13-.1.27-.21.4-.33.63-.64,1.02-1.53,1.18-2.66s.26-2.35.3-3.65c.05-1.29.1-2.57.17-3.83.07-1.25.35-2.32.84-3.2.54.2,1.06.3,1.55.3.63,0,1.24-.11,1.82-.33.58-.22,1.15-.45,1.72-.69.56-.24,1.15-.47,1.75-.69.61-.22,1.25-.33,1.92-.33.23,0,.47.01.74.03.27.02.52.03.74.03.9,0,1.71-.18,2.43-.54.72-.36,1.46-.54,2.22-.54.31,0,.54.06.68.18.13.12.23.24.3.36.07.12.15.24.23.36.09.12.23.18.4.18.77,0,1.54-.08,2.33-.24.78-.16,1.56-.24,2.33-.24.49,0,.9.05,1.21.15.31.1.63.35.94.75.36.48.85.79,1.48.93.63.14,1.26.28,1.89.42.63.14,1.18.34,1.65.6.47.26.71.73.71,1.4,0,1.4-.38,2.35-1.15,2.87-.77.52-1.65.86-2.66,1.04-1.01.18-2,.34-2.97.48-.97.14-1.65.53-2.06,1.17-.45.68-.72,1.41-.81,2.21s-.31,1.57-.67,2.33c-.14.32-.25.62-.34.9-.09.28-.14.58-.14.9,0,.64.09,1.25.27,1.85.18.6.39,1.19.64,1.76s.48,1.16.71,1.76.38,1.19.47,1.79c.27,2.15.4,4.3.4,6.46,0,1.28-.08,2.55-.23,3.83-.16,1.28-.33,2.55-.51,3.83s-.35,2.54-.51,3.79c-.16,1.25-.23,2.5-.23,3.74,0,.96-.34,1.73-1.01,2.33l-.07,1.37c0,1.16.09,2.31.27,3.47.18,1.15.38,2.3.61,3.44s.43,2.28.61,3.44c.18,1.16.27,2.31.27,3.47,0,1.55-.25,3.09-.74,4.6-.49,1.51-.74,3.05-.74,4.6,0,1.16.27,2.07.81,2.75.54.68,1.53,1.02,2.96,1.02.63,0,1.27-.03,1.92-.09s1.29-.09,1.92-.09,1.28.06,1.95.18c.68.12,1.26.4,1.75.84,0,.16.03.4.1.72.07.32.11.63.13.93.02.3.01.55-.03.75-.05.2-.16.24-.34.12ZM182.17,175.41c0-.76-.13-1.53-.37-2.3-.25-.78-.78-1.36-1.59-1.76,0,.36-.01.73-.03,1.11s-.03.75-.03,1.11c0,.64.1,1.27.3,1.88s.75.94,1.65.98c.04-.16.07-.32.07-.48v-.54ZM205.16,222.45c-.18,0-.35,0-.51-.03-.16-.02-.33-.03-.51-.03-.76,0-1.43.13-1.99.39s-.84.79-.84,1.58v.66c.18,0,.35,0,.51.03.16.02.33.03.5.03.76,0,1.44-.13,2.02-.39.58-.26.88-.79.88-1.58l-.07-.66ZM234.76,230.82c0-.24-.18-.44-.54-.6-.36-.16-.65-.24-.87-.24-.14,0-.33.02-.57.06-.25.04-.49.1-.74.18-.25.08-.46.18-.64.3s-.27.26-.27.42c0,.24.21.39.64.45.43.06.75.09.98.09s.62-.04,1.18-.12.84-.26.84-.54Z"/>
</svg>