<?xml version="1.0" encoding="UTF-8"?>
<svg id="Layer_1" xmlns="http://www.w3.org/2000/svg" version="1.1" viewBox="0 0 500 195.35">
  <!-- Generator: Adobe Illustrator 30.1.0, SVG Export Plug-In . SVG Version: 2.1.1 Build 136)  -->
  <defs>
    <style>
      .st0 {
        fill: #ff7f25;
      }

      .st1 {
        fill: #fff;
      }
    </style>
  </defs>
  <rect class="st0" width="500" height="195.35"/>
  <g>
    <path class="st1" d="M38.38,76.57h19.9v10.83h-30.19V29.97h10.29v46.59Z"/>
    <path class="st1" d="M71.03,71.23c1.29,5.14,4.8,7.71,10.51,7.71,3.68,0,6.46-1.37,8.35-4.1l7.75,4.92c-3.68,5.85-9.09,8.78-16.25,8.78-6.16,0-11.11-2.05-14.83-6.15-3.73-4.1-5.59-9.27-5.59-15.5s1.84-11.33,5.52-15.46c3.68-4.13,8.4-6.19,14.16-6.19,5.47,0,9.98,2.08,13.53,6.23,3.55,4.16,5.33,9.3,5.33,15.42,0,1.37-.12,2.82-.37,4.35h-28.1ZM70.88,63.03h19.01c-.55-2.79-1.68-4.87-3.39-6.23-1.71-1.37-3.67-2.05-5.85-2.05-2.58,0-4.72.73-6.41,2.17-1.69,1.45-2.81,3.49-3.35,6.11Z"/>
    <path class="st1" d="M126.94,45.23c4.07,0,7.44,1.5,10.1,4.51,2.66,3.01,3.99,7.17,3.99,12.47v25.18h-9.62v-23.87c0-2.73-.67-4.83-2.01-6.28-1.34-1.45-3.13-2.17-5.37-2.17-2.49,0-4.47.85-5.96,2.54-1.49,1.7-2.24,4.24-2.24,7.63v22.15h-9.62V29.97h9.62v21c2.34-3.83,6.04-5.74,11.11-5.74Z"/>
    <path class="st1" d="M153.99,41.46c-1.59,0-2.97-.64-4.14-1.93-1.17-1.28-1.75-2.8-1.75-4.55s.58-3.28,1.75-4.59c1.17-1.31,2.55-1.97,4.14-1.97s3.04.66,4.21,1.97c1.17,1.31,1.75,2.84,1.75,4.59s-.58,3.27-1.75,4.55c-1.17,1.29-2.57,1.93-4.21,1.93ZM149.22,87.39v-41.02h9.62v41.02h-9.62Z"/>
    <path class="st1" d="M196.18,46.38h9.39v39.05c0,6.34-1.9,11.18-5.7,14.52-3.8,3.33-8.39,5-13.75,5-4.03,0-7.57-.85-10.62-2.54-3.06-1.7-5.4-4.18-7.04-7.46l8.2-5.17c1.89,3.83,5.14,5.74,9.77,5.74,3.03,0,5.42-.88,7.16-2.62,1.74-1.75,2.61-4.24,2.61-7.46v-4.43c-2.83,4.16-6.81,6.23-11.93,6.23s-9.68-2.04-13.23-6.11c-3.55-4.07-5.33-9.04-5.33-14.89s1.79-10.75,5.37-14.85c3.58-4.1,7.98-6.15,13.19-6.15s9.09,2.08,11.93,6.23v-5.09ZM178.26,74.31c1.96,2.11,4.46,3.16,7.49,3.16s5.53-1.05,7.49-3.16c1.96-2.1,2.94-4.8,2.94-8.08s-.98-5.89-2.94-8c-1.96-2.1-4.46-3.16-7.49-3.16s-5.53,1.05-7.49,3.16c-1.96,2.11-2.94,4.77-2.94,8s.98,5.98,2.94,8.08Z"/>
    <path class="st1" d="M235.02,45.23c4.07,0,7.44,1.5,10.1,4.51,2.66,3.01,3.99,7.17,3.99,12.47v25.18h-9.62v-23.87c0-2.73-.67-4.83-2.01-6.28-1.34-1.45-3.13-2.17-5.37-2.17-2.49,0-4.47.85-5.96,2.54-1.49,1.7-2.24,4.24-2.24,7.63v22.15h-9.62V29.97h9.62v21c2.34-3.83,6.04-5.74,11.11-5.74Z"/>
    <path class="st1" d="M289.29,87.39l-17.52-57.42h11.18l12.76,44.15,12.66-44.15h11.26l-17.59,57.42h-12.75Z"/>
    <path class="st1" d="M348.02,46.38h9.62v41.02h-9.62v-4.84c-2.88,3.99-6.93,5.99-12.15,5.99s-9.23-2.09-12.78-6.28c-3.55-4.18-5.33-9.31-5.33-15.38s1.78-11.2,5.33-15.38c3.55-4.18,7.81-6.28,12.78-6.28,5.22,0,9.27,2,12.15,5.99v-4.84ZM330.28,75.21c1.94,2.16,4.4,3.24,7.38,3.24s5.45-1.08,7.42-3.24c1.96-2.16,2.94-4.93,2.94-8.33s-.98-6.17-2.94-8.33c-1.96-2.16-4.43-3.24-7.42-3.24s-5.44,1.08-7.38,3.24c-1.94,2.16-2.91,4.94-2.91,8.33s.97,6.17,2.91,8.33Z"/>
    <path class="st1" d="M366.36,87.39V27.51h9.62v59.88h-9.62Z"/>
    <path class="st1" d="M384.77,87.39V27.51h9.62v59.88h-9.62Z"/>
    <path class="st1" d="M411.31,71.23c1.29,5.14,4.79,7.71,10.51,7.71,3.68,0,6.46-1.37,8.35-4.1l7.75,4.92c-3.68,5.85-9.09,8.78-16.25,8.78-6.16,0-11.11-2.05-14.83-6.15-3.73-4.1-5.59-9.27-5.59-15.5s1.84-11.33,5.52-15.46c3.68-4.13,8.4-6.19,14.16-6.19,5.47,0,9.98,2.08,13.53,6.23,3.55,4.16,5.33,9.3,5.33,15.42,0,1.37-.12,2.82-.37,4.35h-28.1ZM411.16,63.03h19.01c-.55-2.79-1.68-4.87-3.39-6.23-1.71-1.37-3.67-2.05-5.85-2.05-2.58,0-4.72.73-6.41,2.17-1.69,1.45-2.81,3.49-3.35,6.11Z"/>
    <path class="st1" d="M469.3,46.38h10.29l-13.59,41.08c-1.94,5.86-4.51,10.11-7.71,12.77-3.2,2.65-7.18,3.85-11.95,3.57v-9.84c2.58.05,4.63-.55,6.15-1.8,1.51-1.26,2.72-3.28,3.62-6.07l-15.28-39.7h10.51l9.72,27.57,8.25-27.57Z"/>
  </g>
  <g>
    <path class="st1" d="M76.38,168.83l-6.55-16.23h-33.53l-6.55,16.23h-1.83l24.1-59.49h2.09l24.1,59.49h-1.83ZM36.91,151.07h32.3l-16.15-40.02-16.15,40.02Z"/>
    <path class="st1" d="M89.95,137.73c1.04-3.96,3.07-6.94,6.09-8.92,3.01-1.98,6.35-2.97,10-2.97v1.53c-4.52,0-8.34,1.59-11.44,4.76-3.1,3.17-4.65,7.54-4.65,13.09v23.62h-1.74v-42.49h1.74v11.39Z"/>
    <path class="st1" d="M137.27,127.87h-13.83v31.53c0,3.74,1.04,6.18,3.13,7.31,2.09,1.13,5.65,1.33,10.7.6v1.53c-5.45.85-9.41.54-11.87-.93-2.47-1.47-3.7-4.3-3.7-8.5v-31.53h-10.44v-1.53h10.44v-11.39l1.74-.51v11.9h13.83v1.53Z"/>
    <path class="st1" d="M221.74,167.98l-1.48.85-8.29-8.24c-4.54,6.06-10.82,9.09-18.85,9.09-6.03,0-10.76-1.51-14.18-4.55-3.42-3.03-5.13-7.07-5.13-12.11,0-3.85,1.14-7.34,3.44-10.45,2.29-3.11,5.44-5.49,9.44-7.14-3.77-4.08-5.65-8.19-5.65-12.32s1.59-7.82,4.78-10.54c3.19-2.72,7.22-4.08,12.09-4.08,3.77,0,7.05.89,9.83,2.68,2.78,1.78,4.75,4.29,5.92,7.52l-1.39.77c-1.04-2.89-2.8-5.18-5.26-6.88-2.47-1.7-5.5-2.55-9.09-2.55-4.64,0-8.32,1.26-11.05,3.78-2.73,2.52-4.09,5.68-4.09,9.48,0,2.66.69,5.03,2.09,7.1,1.39,2.07,3.59,4.6,6.61,7.61l20.19,19.99c2.26-3.46,3.74-7.75,4.44-12.86l1.48.85c-.8,5.11-2.35,9.54-4.63,13.28l8.81,8.73ZM193.03,168.15c7.54,0,13.43-2.95,17.66-8.84l-20.42-20.31c-1.12-1.07-1.91-1.86-2.38-2.36-4,1.53-7.06,3.77-9.18,6.71-2.12,2.94-3.18,6.2-3.18,9.76,0,4.64,1.58,8.31,4.74,11,3.16,2.69,7.41,4.03,12.74,4.03Z"/>
    <path class="st1" d="M313.08,109.34v59.49h-1.74v-57.19l-24.88,39.43h-.7l-24.88-39.43v57.19h-1.74v-59.49h2.23l24.73,39.2,24.74-39.2h2.23Z"/>
    <path class="st1" d="M362.23,126.34h1.74v42.49h-1.74v-11.64c-1.16,4.02-3.32,7.11-6.48,9.26-3.16,2.15-6.8,3.23-10.92,3.23-4.93,0-8.92-1.5-11.96-4.5-3.04-3-4.57-6.94-4.57-11.81v-27.02h1.74v27.02c0,4.31,1.33,7.85,4,10.62,2.67,2.78,6.29,4.16,10.87,4.16,5.1,0,9.26-1.74,12.48-5.23s4.83-8.09,4.83-13.81v-22.78Z"/>
    <path class="st1" d="M379.63,137.34c0,2.43.97,4.32,2.92,5.67,1.95,1.35,4.31,2.33,7.08,2.92,2.77.59,5.54,1.19,8.31,1.78,2.77.59,5.12,1.72,7.06,3.38,1.94,1.66,2.91,3.89,2.91,6.69,0,3.34-1.42,6.16-4.26,8.46-2.84,2.29-6.5,3.44-10.96,3.44-8.58,0-13.95-2.97-16.09-8.92l1.39-.76c1.8,5.44,6.7,8.16,14.7,8.16,3.94,0,7.18-.98,9.7-2.93,2.52-1.96,3.78-4.43,3.78-7.44,0-2.49-.97-4.45-2.91-5.86-1.94-1.42-4.3-2.43-7.07-3.04-2.77-.61-5.54-1.22-8.31-1.83-2.77-.61-5.12-1.69-7.07-3.25-1.94-1.56-2.91-3.7-2.91-6.42,0-3.4,1.32-6.23,3.96-8.5,2.64-2.27,6.19-3.4,10.66-3.4,3.36,0,6.26.74,8.7,2.21,2.44,1.47,4.18,3.46,5.22,5.95l-1.39.76c-.93-2.26-2.49-4.06-4.7-5.4-2.21-1.33-4.81-2-7.83-2-3.89,0-7,.96-9.35,2.88-2.35,1.92-3.52,4.4-3.52,7.45Z"/>
    <path class="st1" d="M421.96,112.91c-.38.4-.86.59-1.44.59s-1.06-.2-1.44-.59c-.38-.4-.57-.85-.57-1.36s.19-.96.57-1.36c.38-.4.86-.59,1.44-.59s1.06.2,1.44.59c.38.4.57.85.57,1.36s-.19.96-.57,1.36ZM419.65,168.83v-42.49h1.74v42.49h-1.74Z"/>
    <path class="st1" d="M456.28,169.68c-6.44,0-11.83-2.12-16.18-6.37s-6.52-9.49-6.52-15.72,2.17-11.47,6.52-15.72,9.74-6.37,16.18-6.37c4.23,0,8.05.93,11.44,2.8,3.39,1.87,5.9,4.39,7.52,7.56l-1.39.85c-1.51-2.95-3.83-5.3-6.96-7.05-3.13-1.75-6.67-2.63-10.61-2.63-6.03,0-11.04,1.97-15.01,5.91-3.97,3.94-5.96,8.83-5.96,14.66s1.99,10.72,5.96,14.66c3.97,3.94,8.97,5.91,15.01,5.91,3.94,0,7.47-.88,10.57-2.63,3.1-1.75,5.44-4.11,7-7.05l1.39.85c-1.62,3.17-4.13,5.69-7.52,7.56-3.39,1.87-7.21,2.8-11.44,2.8Z"/>
  </g>
</svg>