<?xml version="1.0" encoding="UTF-8"?>
<svg id="Layer_1" xmlns="http://www.w3.org/2000/svg" version="1.1" viewBox="0 0 500 195.35">
  <!-- Generator: Adobe Illustrator 30.0.0, SVG Export Plug-In . SVG Version: 2.1.1 Build 123)  -->
  <defs>
    <style>
      .st0 {
        fill: #ff7f25;
      }

      .st1 {
        fill: #fff;
      }
    </style>
  </defs>
  <rect class="st0" width="500" height="195.35"/>
  <g>
    <path class="st1" d="M38.38,79.53h19.9v9.84h-30.19v-52.18h10.29v42.34Z"/>
    <path class="st1" d="M71.03,74.68c1.29,4.67,4.8,7.01,10.51,7.01,3.68,0,6.46-1.24,8.35-3.73l7.75,4.47c-3.68,5.32-9.09,7.98-16.25,7.98-6.16,0-11.11-1.86-14.83-5.59-3.73-3.73-5.59-8.42-5.59-14.09s1.84-10.3,5.52-14.05c3.68-3.75,8.4-5.63,14.16-5.63,5.47,0,9.98,1.89,13.53,5.67,3.55,3.78,5.33,8.45,5.33,14.01,0,1.24-.12,2.56-.37,3.95h-28.1ZM70.88,67.23h19.01c-.55-2.53-1.68-4.42-3.39-5.67-1.71-1.24-3.67-1.86-5.85-1.86-2.58,0-4.72.66-6.41,1.98-1.69,1.32-2.81,3.17-3.35,5.55Z"/>
    <path class="st1" d="M126.94,51.05c4.07,0,7.44,1.37,10.1,4.1,2.66,2.73,3.99,6.51,3.99,11.33v22.88h-9.62v-21.69c0-2.48-.67-4.38-2.01-5.7-1.34-1.32-3.13-1.98-5.37-1.98-2.49,0-4.47.77-5.96,2.31-1.49,1.54-2.24,3.85-2.24,6.93v20.13h-9.62v-52.18h9.62v19.08c2.34-3.48,6.04-5.22,11.11-5.22Z"/>
    <path class="st1" d="M153.99,47.62c-1.59,0-2.97-.58-4.14-1.75-1.17-1.17-1.75-2.55-1.75-4.14s.58-2.98,1.75-4.17c1.17-1.19,2.55-1.79,4.14-1.79s3.04.6,4.21,1.79c1.17,1.19,1.75,2.58,1.75,4.17s-.58,2.97-1.75,4.14c-1.17,1.17-2.57,1.75-4.21,1.75ZM149.22,89.36v-37.27h9.62v37.27h-9.62Z"/>
    <path class="st1" d="M196.18,52.09h9.39v35.48c0,5.76-1.9,10.16-5.7,13.19-3.8,3.03-8.39,4.55-13.75,4.55-4.03,0-7.57-.77-10.62-2.31-3.06-1.54-5.4-3.8-7.04-6.78l8.2-4.7c1.89,3.48,5.14,5.22,9.77,5.22,3.03,0,5.42-.8,7.16-2.39,1.74-1.59,2.61-3.85,2.61-6.78v-4.03c-2.83,3.78-6.81,5.67-11.93,5.67s-9.68-1.85-13.23-5.55c-3.55-3.7-5.33-8.21-5.33-13.53s1.79-9.76,5.37-13.49c3.58-3.73,7.98-5.59,13.19-5.59s9.09,1.89,11.93,5.67v-4.62ZM178.26,77.47c1.96,1.91,4.46,2.87,7.49,2.87s5.53-.96,7.49-2.87c1.96-1.91,2.94-4.36,2.94-7.34s-.98-5.35-2.94-7.27c-1.96-1.91-4.46-2.87-7.49-2.87s-5.53.96-7.49,2.87c-1.96,1.91-2.94,4.34-2.94,7.27s.98,5.43,2.94,7.34Z"/>
    <path class="st1" d="M235.02,51.05c4.07,0,7.44,1.37,10.1,4.1,2.66,2.73,3.99,6.51,3.99,11.33v22.88h-9.62v-21.69c0-2.48-.67-4.38-2.01-5.7-1.34-1.32-3.13-1.98-5.37-1.98-2.49,0-4.47.77-5.96,2.31-1.49,1.54-2.24,3.85-2.24,6.93v20.13h-9.62v-52.18h9.62v19.08c2.34-3.48,6.04-5.22,11.11-5.22Z"/>
    <path class="st1" d="M289.28,89.36l-17.52-52.18h11.18l12.76,40.12,12.66-40.12h11.26l-17.59,52.18h-12.75Z"/>
    <path class="st1" d="M348.02,52.09h9.62v37.27h-9.62v-4.4c-2.88,3.63-6.93,5.44-12.15,5.44s-9.23-1.9-12.78-5.7c-3.55-3.8-5.33-8.46-5.33-13.98s1.78-10.18,5.33-13.98c3.55-3.8,7.81-5.7,12.78-5.7,5.22,0,9.27,1.81,12.15,5.44v-4.4ZM330.28,78.3c1.94,1.96,4.4,2.94,7.38,2.94s5.45-.98,7.42-2.94c1.96-1.96,2.94-4.48,2.94-7.57s-.98-5.6-2.94-7.57c-1.96-1.96-4.43-2.94-7.42-2.94s-5.44.98-7.38,2.94c-1.94,1.96-2.91,4.49-2.91,7.57s.97,5.6,2.91,7.57Z"/>
    <path class="st1" d="M366.36,89.36v-54.42h9.62v54.42h-9.62Z"/>
    <path class="st1" d="M384.77,89.36v-54.42h9.62v54.42h-9.62Z"/>
    <path class="st1" d="M411.31,74.68c1.29,4.67,4.79,7.01,10.51,7.01,3.68,0,6.46-1.24,8.35-3.73l7.75,4.47c-3.68,5.32-9.09,7.98-16.25,7.98-6.16,0-11.11-1.86-14.83-5.59-3.73-3.73-5.59-8.42-5.59-14.09s1.84-10.3,5.52-14.05c3.68-3.75,8.4-5.63,14.16-5.63,5.47,0,9.98,1.89,13.53,5.67,3.55,3.78,5.33,8.45,5.33,14.01,0,1.24-.12,2.56-.37,3.95h-28.1ZM411.16,67.23h19.01c-.55-2.53-1.68-4.42-3.39-5.67-1.71-1.24-3.67-1.86-5.85-1.86-2.58,0-4.72.66-6.41,1.98-1.69,1.32-2.81,3.17-3.35,5.55Z"/>
    <path class="st1" d="M469.3,52.09h10.29l-13.59,37.33c-1.94,5.32-4.51,9.19-7.71,11.6-3.2,2.41-7.18,3.49-11.95,3.25v-8.94c2.58.05,4.63-.5,6.15-1.64,1.51-1.14,2.72-2.98,3.62-5.52l-15.28-36.08h10.51l9.72,25.05,8.25-25.05Z"/>
  </g>
  <g>
    <path class="st1" d="M72.24,164.49l-6.01-15.26h-30.79l-6.01,15.26h-1.68l22.13-55.92h1.91l22.13,55.92h-1.68ZM36,147.8h29.66l-14.83-37.62-14.83,37.62Z"/>
    <path class="st1" d="M84.7,135.26c.96-3.73,2.82-6.52,5.59-8.39,2.77-1.86,5.83-2.8,9.19-2.8v1.44c-4.15,0-7.66,1.49-10.5,4.47-2.85,2.98-4.27,7.08-4.27,12.3v22.21h-1.6v-39.94h1.6v10.7Z"/>
    <path class="st1" d="M128.16,125.99h-12.7v29.64c0,3.51.96,5.81,2.88,6.87,1.92,1.07,5.19,1.25,9.83.56v1.44c-5.01.8-8.64.51-10.9-.88-2.26-1.38-3.4-4.05-3.4-7.99v-29.64h-9.59v-1.44h9.59v-10.7l1.6-.48v11.18h12.7v1.44Z"/>
    <path class="st1" d="M136.94,134.9c0,2.28.89,4.06,2.68,5.33,1.79,1.27,3.96,2.19,6.5,2.75,2.54.56,5.08,1.12,7.63,1.68,2.54.56,4.7,1.62,6.48,3.17,1.78,1.56,2.67,3.65,2.67,6.28,0,3.14-1.31,5.79-3.91,7.95-2.61,2.16-5.96,3.24-10.07,3.24-7.88,0-12.81-2.8-14.78-8.39l1.28-.72c1.65,5.11,6.15,7.67,13.5,7.67,3.62,0,6.59-.92,8.91-2.76,2.32-1.84,3.47-4.17,3.47-6.99,0-2.34-.89-4.18-2.68-5.51-1.79-1.33-3.95-2.28-6.49-2.85-2.54-.57-5.09-1.14-7.63-1.72s-4.71-1.59-6.49-3.06c-1.79-1.46-2.68-3.48-2.68-6.03,0-3.2,1.21-5.86,3.63-7.99,2.42-2.13,5.68-3.2,9.79-3.2,3.09,0,5.75.69,7.99,2.08s3.83,3.25,4.79,5.59l-1.28.72c-.85-2.13-2.29-3.82-4.31-5.07-2.02-1.25-4.42-1.88-7.19-1.88-3.57,0-6.43.9-8.59,2.71-2.16,1.8-3.24,4.14-3.24,7Z"/>
    <path class="st1" d="M240.47,163.7l-1.36.8-7.61-7.75c-4.17,5.7-9.94,8.55-17.31,8.55-5.54,0-9.88-1.42-13.02-4.27-3.14-2.85-4.71-6.64-4.71-11.38,0-3.62,1.05-6.9,3.16-9.83,2.1-2.93,4.99-5.17,8.67-6.71-3.46-3.83-5.19-7.69-5.19-11.58s1.46-7.35,4.39-9.91c2.93-2.56,6.63-3.83,11.1-3.83,3.46,0,6.47.84,9.03,2.52,2.56,1.68,4.37,4.03,5.43,7.07l-1.28.72c-.96-2.72-2.57-4.87-4.83-6.47-2.26-1.6-5.05-2.4-8.35-2.4-4.26,0-7.64,1.19-10.15,3.56-2.5,2.37-3.75,5.34-3.75,8.91,0,2.5.64,4.73,1.92,6.67,1.28,1.94,3.3,4.33,6.07,7.15l18.54,18.79c2.08-3.26,3.44-7.29,4.08-12.09l1.36.8c-.74,4.8-2.15,8.97-4.25,12.49l8.09,8.2ZM214.11,163.86c6.92,0,12.33-2.77,16.22-8.31l-18.75-19.09c-1.02-1-1.75-1.74-2.18-2.22-3.67,1.44-6.48,3.54-8.43,6.31-1.94,2.77-2.92,5.83-2.92,9.18,0,4.36,1.45,7.81,4.35,10.34,2.9,2.53,6.8,3.79,11.7,3.79Z"/>
    <path class="st1" d="M324.35,108.58v55.92h-1.6v-53.76l-22.85,37.07h-.64l-22.85-37.06v53.76h-1.6v-55.92h2.05l22.71,36.85,22.71-36.85h2.05Z"/>
    <path class="st1" d="M369.48,124.55h1.6v39.94h-1.6v-10.94c-1.07,3.78-3.05,6.68-5.95,8.71-2.9,2.02-6.24,3.04-10.03,3.04-4.53,0-8.19-1.41-10.98-4.23-2.8-2.82-4.19-6.52-4.19-11.1v-25.4h1.6v25.4c0,4.05,1.22,7.38,3.67,9.99,2.45,2.61,5.78,3.92,9.99,3.92,4.69,0,8.51-1.64,11.46-4.91,2.96-3.28,4.43-7.6,4.43-12.98v-21.41Z"/>
    <path class="st1" d="M385.46,134.9c0,2.28.89,4.06,2.68,5.33,1.79,1.27,3.96,2.19,6.5,2.75,2.54.56,5.08,1.12,7.63,1.68,2.54.56,4.7,1.62,6.48,3.17,1.78,1.56,2.67,3.65,2.67,6.28,0,3.14-1.31,5.79-3.91,7.95-2.61,2.16-5.96,3.24-10.07,3.24-7.88,0-12.81-2.8-14.78-8.39l1.28-.72c1.65,5.11,6.15,7.67,13.5,7.67,3.62,0,6.59-.92,8.91-2.76,2.32-1.84,3.47-4.17,3.47-6.99,0-2.34-.89-4.18-2.68-5.51-1.79-1.33-3.95-2.28-6.49-2.85-2.54-.57-5.09-1.14-7.63-1.72-2.54-.57-4.71-1.59-6.49-3.06-1.78-1.46-2.68-3.48-2.68-6.03,0-3.2,1.21-5.86,3.63-7.99,2.42-2.13,5.68-3.2,9.79-3.2,3.09,0,5.75.69,7.99,2.08,2.24,1.38,3.83,3.25,4.79,5.59l-1.28.72c-.85-2.13-2.29-3.82-4.31-5.07-2.03-1.25-4.42-1.88-7.19-1.88-3.57,0-6.43.9-8.59,2.71-2.16,1.8-3.24,4.14-3.24,7Z"/>
    <path class="st1" d="M424.32,111.93c-.35.37-.79.56-1.32.56s-.97-.19-1.32-.56c-.35-.37-.52-.8-.52-1.28s.17-.91.52-1.28c.35-.37.79-.56,1.32-.56s.97.19,1.32.56c.35.37.52.8.52,1.28s-.17.91-.52,1.28ZM422.2,164.49v-39.94h1.6v39.94h-1.6Z"/>
    <path class="st1" d="M455.83,165.29c-5.91,0-10.86-2-14.86-5.99s-5.99-8.92-5.99-14.78,2-10.78,5.99-14.78,8.95-5.99,14.86-5.99c3.89,0,7.39.88,10.5,2.64,3.12,1.76,5.42,4.13,6.91,7.11l-1.28.8c-1.39-2.77-3.52-4.98-6.39-6.63-2.88-1.65-6.12-2.48-9.75-2.48-5.54,0-10.13,1.85-13.78,5.55-3.65,3.7-5.47,8.3-5.47,13.78s1.82,10.08,5.47,13.78c3.65,3.7,8.24,5.55,13.78,5.55,3.62,0,6.86-.83,9.71-2.48,2.85-1.65,4.99-3.86,6.43-6.63l1.28.8c-1.49,2.98-3.79,5.35-6.91,7.11-3.12,1.76-6.62,2.64-10.5,2.64Z"/>
  </g>
</svg>